<svg width="18" height="18" viewBox="0 0 18 18" fill="none" xmlns="http://www.w3.org/2000/svg">
<path d="M17.5058 9.91182C17.3722 9.65505 17.2264 9.40995 17.1171 9.15319C17.0807 9.08316 17.0807 8.9431 17.1171 8.8614C17.2386 8.60464 17.3722 8.34787 17.5058 8.10277C17.6029 7.9277 17.688 7.76431 17.7851 7.58924C18.2588 6.65554 17.9309 5.69849 16.9835 5.2083C16.5462 4.98655 16.109 4.76479 15.6717 4.56638C15.5381 4.50802 15.4896 4.438 15.4653 4.2746C15.4167 3.90112 15.356 3.52764 15.2831 3.14249L15.2345 2.90906C15.0523 1.917 14.2507 1.32177 13.2183 1.42681C12.696 1.4735 12.1738 1.56687 11.7122 1.64857C11.53 1.67191 11.4329 1.64857 11.3236 1.53185C11.1049 1.29843 10.8742 1.07667 10.6434 0.85492L10.4005 0.621495C9.52597 -0.207165 8.48143 -0.207165 7.60693 0.621495L7.35187 0.85492C7.13325 1.07667 6.89033 1.28676 6.68385 1.52018C6.5624 1.64857 6.46523 1.67191 6.25875 1.63689C5.79721 1.5552 5.27494 1.46183 4.75267 1.41514C3.74457 1.32177 2.94295 1.917 2.7729 2.88572C2.73647 3.04912 2.71218 3.21251 2.68788 3.37591C2.6393 3.66769 2.60286 3.95948 2.52999 4.25126C2.5057 4.3563 2.39638 4.49635 2.31136 4.55471C2.0563 4.70644 1.77695 4.83482 1.50974 4.9632C1.36399 5.03323 1.21824 5.10326 1.07249 5.17329C0.0522443 5.68682 -0.263547 6.63219 0.246577 7.63592C0.319452 7.78765 0.404473 7.9277 0.477347 8.07943C0.623097 8.3362 0.768847 8.60464 0.890305 8.87307C0.914596 8.9431 0.914596 9.05982 0.890305 9.12984C0.768847 9.39828 0.635243 9.65505 0.489493 9.91182C0.404473 10.0752 0.307306 10.2386 0.222286 10.402C-0.263547 11.3474 0.0643901 12.3161 1.03605 12.818C1.46116 13.028 1.88626 13.2498 2.32351 13.4365C2.46926 13.5066 2.52999 13.5766 2.54213 13.7517C2.57857 14.1018 2.6393 14.4519 2.71218 14.8021L2.76076 15.0822C2.94295 16.0976 3.74457 16.6928 4.80125 16.5878C5.25065 16.5411 5.70004 16.4711 6.14944 16.3894L6.29519 16.366C6.46523 16.3427 6.55025 16.366 6.64742 16.4594C6.87819 16.7045 7.1211 16.9262 7.36402 17.1597L7.60693 17.3931C8.03204 17.8016 8.51787 18 8.99156 18C9.46524 18 9.93893 17.8016 10.364 17.4048L10.5948 17.1947C10.8499 16.9613 11.0928 16.7278 11.3236 16.4827C11.4329 16.366 11.5179 16.3427 11.7122 16.3777C12.1252 16.4477 12.5381 16.5061 12.9025 16.5644L13.2547 16.6228H13.3033C14.2993 16.6111 15.0523 16.0509 15.2102 15.1989C15.2466 15.0005 15.2831 14.8021 15.3074 14.592C15.356 14.3119 15.3924 14.0318 15.4531 13.7517C15.4774 13.6583 15.5624 13.5299 15.6475 13.4832C15.9025 13.3432 16.1576 13.2148 16.4248 13.0864C16.607 13.0047 16.7892 12.9113 16.9713 12.818C17.9187 12.3278 18.2467 11.3707 17.773 10.437C17.688 10.2503 17.6029 10.0752 17.5058 9.91182ZM13.6555 13.2381L13.5948 13.6233C13.5341 13.9968 13.4734 14.3586 13.4126 14.732C13.4126 14.7554 13.4005 14.7787 13.4005 14.8021L12.9754 14.7437C12.6474 14.697 12.3438 14.662 12.0523 14.6037C11.2264 14.4403 10.5341 14.6503 9.98751 15.2339C9.82962 15.409 9.65958 15.5607 9.48953 15.7241C9.35593 15.8525 9.21018 15.9809 9.07658 16.1209C9.04014 16.1559 9.02799 16.1676 9.01585 16.1793C9.0037 16.1676 8.97941 16.1559 8.95512 16.1326C8.79722 15.9692 8.63933 15.8175 8.46929 15.6657C8.29924 15.5023 8.11706 15.339 7.95916 15.1639C7.55835 14.7554 7.07252 14.557 6.51381 14.557C6.36806 14.557 6.22231 14.5686 6.06442 14.592C5.88223 14.627 5.71219 14.6503 5.53 14.6737C5.27494 14.7087 5.01988 14.7437 4.76482 14.8021C4.71623 14.8137 4.6798 14.8137 4.6555 14.8137C4.63121 14.8137 4.63121 14.8137 4.63121 14.8137C4.63121 14.8137 4.60692 14.7787 4.58263 14.6503C4.53405 14.2535 4.46117 13.8684 4.40044 13.4832L4.35186 13.2148C4.25469 12.6546 3.92676 12.2227 3.38019 11.9543L3.18586 11.8609C2.7729 11.6392 2.38424 11.4408 1.98343 11.2657C1.93484 11.2423 1.91055 11.219 1.89841 11.219C1.89841 11.2073 1.91055 11.1723 1.93484 11.1256C2.09274 10.8572 2.23849 10.5771 2.38424 10.297L2.60286 9.8768C2.91865 9.29324 2.91865 8.69801 2.60286 8.11444C2.54213 7.98606 2.46926 7.85768 2.39638 7.71762C2.26278 7.44918 2.12918 7.18074 1.95914 6.92397C1.91055 6.84228 1.89841 6.79559 1.89841 6.79559C1.91055 6.78392 1.94699 6.74891 2.0563 6.70222C2.27493 6.60885 2.49355 6.49214 2.71218 6.3871C2.88222 6.3054 3.05226 6.2237 3.2223 6.142C3.89032 5.83855 4.27898 5.33668 4.37615 4.63641C4.40044 4.47301 4.42473 4.32128 4.44903 4.15789C4.49761 3.88945 4.54619 3.62101 4.57048 3.35257C4.58263 3.24753 4.60692 3.21251 4.60692 3.21251C4.60692 3.21251 4.6555 3.20084 4.76482 3.22419C4.9713 3.2592 5.17777 3.29421 5.38425 3.31756C5.57858 3.3409 5.77292 3.37591 5.96725 3.41093C6.76887 3.56265 7.44904 3.36424 7.97131 2.81569C8.1292 2.65229 8.2871 2.50057 8.45714 2.33717C8.61504 2.19711 8.76079 2.04539 8.90654 1.89366C8.96726 1.85865 8.99156 1.84698 8.99156 1.83531C9.0037 1.84698 9.02799 1.85865 9.06443 1.89366C9.22233 2.05706 9.38022 2.20879 9.55026 2.36051C9.7203 2.52391 9.8782 2.67564 10.0361 2.83903C10.5462 3.36424 11.1899 3.56265 11.9673 3.4226C12.1373 3.38758 12.3195 3.36424 12.4895 3.3409C12.7325 3.30588 12.9754 3.27087 13.2183 3.22419C13.2669 3.21251 13.3155 3.21251 13.3398 3.21251C13.364 3.21251 13.3762 3.21251 13.3762 3.21251C13.3762 3.21251 13.4126 3.24753 13.4248 3.38758C13.4734 3.73772 13.5341 4.08786 13.5948 4.438L13.6555 4.78813C13.7527 5.3717 14.0928 5.80353 14.6515 6.08364L14.9551 6.23537C15.3074 6.41044 15.6717 6.59718 16.0361 6.76058C16.0726 6.78392 16.0969 6.79559 16.109 6.79559C16.109 6.80726 16.0969 6.8306 16.0726 6.86562C15.9268 7.11071 15.7932 7.35581 15.6596 7.61258C15.5746 7.77598 15.4774 7.95105 15.3924 8.11444C15.0645 8.70968 15.0766 9.31658 15.3924 9.91182C15.5624 10.2153 15.7203 10.5187 15.8782 10.8222L15.9997 11.0556C16.024 11.0906 16.0604 11.1723 16.0847 11.2307C16.024 11.2657 15.939 11.3007 15.9025 11.324C15.4896 11.5225 15.0887 11.7325 14.6758 11.9309C14.0928 12.1994 13.7527 12.6429 13.6555 13.2381Z" fill="currentColor"/>
<path d="M11.2385 6.52715C11.1414 6.60885 11.0563 6.70222 10.9592 6.79559L8.00775 9.63171L7.76483 9.39828C7.44904 9.08316 7.13325 8.77971 6.81746 8.47625C6.25875 7.93937 5.71219 8.06776 5.3964 8.35954C5.21421 8.53461 5.11704 8.74469 5.11704 8.96644C5.11704 9.23488 5.2385 9.50332 5.49356 9.73675C6.06442 10.297 6.64742 10.8455 7.23041 11.3941C7.50977 11.6625 7.76483 11.7909 8.01989 11.7909C8.2871 11.7909 8.54216 11.6508 8.82152 11.3824L11.4329 8.87307C11.8094 8.51127 12.1859 8.14946 12.5503 7.78765C12.9632 7.39083 12.9754 6.8306 12.5867 6.4688C12.2102 6.10699 11.6758 6.13033 11.2385 6.52715Z" fill="currentColor"/>
</svg>
