<svg width="18" height="18" viewBox="0 0 18 18" fill="none" xmlns="http://www.w3.org/2000/svg">
<g clip-path="url(#clip0_3122_524)">
<path d="M16.5703 0.500122C16.3243 0.500122 16.0783 0.500122 15.8323 0.500122C15.641 0.500122 15.4497 0.500122 15.2584 0.500122C15.0671 0.500122 14.8757 0.527453 14.7117 0.554784C10.1748 0.91009 6.97702 3.2879 4.73586 7.11427C4.62654 7.27826 4.62654 7.38758 4.79052 7.55157C6.70371 9.43742 8.58956 11.3506 10.5027 13.2638C10.6121 13.3731 10.7214 13.4004 10.8854 13.2911C11.596 12.7992 12.3613 12.3345 13.0445 11.7879C16.297 9.10945 17.6635 5.61105 17.4995 1.45671C17.4722 0.855428 17.1442 0.527453 16.5703 0.500122ZM12.1426 8.34417C10.7487 8.34417 9.65547 7.25093 9.65547 5.85704C9.65547 4.49048 10.7761 3.3699 12.1426 3.3699C13.5092 3.3699 14.6298 4.49048 14.6298 5.85704C14.6298 7.2236 13.5365 8.34417 12.1426 8.34417Z" fill="white"/>
<path d="M4.08103 8.34436C3.88971 9.05497 3.6984 9.73825 3.58907 10.4489C3.56174 10.6402 3.6984 10.9408 3.86238 11.0775C4.87364 12.1161 5.88489 13.1273 6.92348 14.1386C7.06013 14.3026 7.36078 14.4392 7.57942 14.4119C8.29004 14.3026 8.97332 14.0839 9.6566 13.9199C7.77074 12.0341 5.93955 10.2302 4.08103 8.34436Z" fill="white"/>
<path d="M8.26137 16.7619C8.39803 17.4178 9.08131 17.7185 9.65526 17.3358C10.5299 16.7892 11.4045 16.1879 12.2517 15.614C12.5524 15.3953 12.7437 15.0947 12.7984 14.7394C12.853 14.2474 12.8803 13.7555 12.935 13.1542C11.4318 14.2474 9.81925 15.0127 8.04272 15.368C8.09739 15.86 8.15205 16.2973 8.26137 16.7619Z" fill="white"/>
<path d="M1.15527 9.71051C1.6199 9.81984 2.11186 9.8745 2.63115 9.95649C2.98646 8.15263 3.75173 6.56742 4.84498 5.06421C4.27102 5.11887 3.75173 5.11887 3.2871 5.20087C2.98646 5.28286 2.63115 5.44685 2.46717 5.69283C1.81122 6.56742 1.20993 7.49669 0.635976 8.45328C0.308002 8.91791 0.608645 9.57385 1.15527 9.71051Z" fill="white"/>
<path d="M4.7083 13.8102C4.57165 13.6736 4.46232 13.4549 4.32566 13.4276C4.16168 13.4003 3.88837 13.4276 3.77904 13.5369C2.71312 14.5482 1.70187 15.5867 0.690616 16.6253C0.444636 16.8713 0.444636 17.1446 0.663285 17.3633C0.881935 17.5546 1.15525 17.5546 1.40123 17.3086C2.41248 16.2974 3.42374 15.2861 4.43499 14.2475C4.54431 14.1655 4.59898 14.0015 4.7083 13.8102Z" fill="white"/>
<path d="M2.33109 12.0065C1.75714 12.5531 1.18318 13.1271 0.66389 13.701C0.554565 13.8103 0.527234 14.0563 0.581897 14.2203C0.636559 14.357 0.855209 14.439 0.964533 14.5483C1.12852 14.4663 1.26518 14.439 1.34717 14.357C1.92112 13.8103 2.46775 13.2637 3.01437 12.6898C3.20569 12.4984 3.17836 12.1705 2.98704 12.0065C2.76839 11.8425 2.52241 11.8152 2.33109 12.0065Z" fill="white"/>
<path d="M5.80197 14.9309C5.63798 14.9035 5.36467 14.9309 5.22802 15.0402C4.70872 15.5322 4.18943 16.0788 3.67014 16.5981C3.45149 16.8441 3.45149 17.1447 3.64281 17.336C3.86146 17.5547 4.13477 17.5273 4.38075 17.2814C4.90004 16.7894 5.41933 16.2701 5.93863 15.7508C6.04795 15.6415 6.07528 15.5048 6.18461 15.3135C6.04795 15.1769 5.93863 14.9582 5.80197 14.9309Z" fill="white"/>
<path d="M12.1436 4.35364C11.3237 4.35364 10.6677 5.03692 10.6677 5.82952C10.6677 6.67679 11.3237 7.33274 12.1436 7.33274C12.9635 7.33274 13.6468 6.64946 13.6468 5.82952C13.6468 5.00959 12.9635 4.35364 12.1436 4.35364Z" fill="white"/>
</g>
<defs>
<clipPath id="clip0_3122_524">
<rect width="17" height="17" fill="white" transform="translate(0.5 0.5)"/>
</clipPath>
</defs>
</svg>
