<svg width="12" height="10" viewBox="0 0 12 10" fill="none" xmlns="http://www.w3.org/2000/svg">
<path d="M3.54313 9.59991C3.53567 9.59991 3.5282 9.59991 3.52073 9.59991C3.29668 9.59991 3.07264 9.54035 2.87099 9.44358C2.67682 9.3468 2.49758 9.19791 2.35569 9.01924L0.324325 6.40624C0.0704045 6.07869 0.13015 5.61713 0.451285 5.36402C0.779887 5.11091 1.24292 5.17046 1.49684 5.49802L3.53567 8.11102L10.0405 0.27202C10.3019 -0.0480909 10.7724 -0.0927576 11.0935 0.175242C11.4147 0.435798 11.4595 0.904798 11.1906 1.22491L4.69324 9.06391C4.54388 9.23513 4.37211 9.36913 4.17047 9.46591C3.97629 9.55524 3.75971 9.59991 3.54313 9.59991Z" fill="white"/>
</svg>
