<svg width="18" height="18" viewBox="0 0 18 18" fill="none" xmlns="http://www.w3.org/2000/svg">
<path d="M7.44444 13.8C7.65072 13.8 7.84855 13.7157 7.99442 13.5657C8.14028 13.4157 8.22222 13.2122 8.22222 13V8.2C8.22222 7.98783 8.14028 7.78434 7.99442 7.63432C7.84855 7.48429 7.65072 7.4 7.44444 7.4C7.23816 7.4 7.04033 7.48429 6.89447 7.63432C6.74861 7.78434 6.66667 7.98783 6.66667 8.2V13C6.66667 13.2122 6.74861 13.4157 6.89447 13.5657C7.04033 13.7157 7.23816 13.8 7.44444 13.8ZM15.2222 4.2H12.1111V3.4C12.1111 2.76348 11.8653 2.15303 11.4277 1.70294C10.9901 1.25286 10.3966 1 9.77778 1H8.22222C7.60338 1 7.00989 1.25286 6.57231 1.70294C6.13472 2.15303 5.88889 2.76348 5.88889 3.4V4.2H2.77778C2.5715 4.2 2.37367 4.28429 2.22781 4.43431C2.08194 4.58434 2 4.78783 2 5C2 5.21217 2.08194 5.41566 2.22781 5.56569C2.37367 5.71571 2.5715 5.8 2.77778 5.8H3.55556V14.6C3.55556 15.2365 3.80139 15.847 4.23897 16.2971C4.67656 16.7471 5.27005 17 5.88889 17H12.1111C12.7299 17 13.3234 16.7471 13.761 16.2971C14.1986 15.847 14.4444 15.2365 14.4444 14.6V5.8H15.2222C15.4285 5.8 15.6263 5.71571 15.7722 5.56569C15.9181 5.41566 16 5.21217 16 5C16 4.78783 15.9181 4.58434 15.7722 4.43431C15.6263 4.28429 15.4285 4.2 15.2222 4.2ZM7.44444 3.4C7.44444 3.18783 7.52639 2.98434 7.67225 2.83431C7.81811 2.68429 8.01594 2.6 8.22222 2.6H9.77778C9.98406 2.6 10.1819 2.68429 10.3277 2.83431C10.4736 2.98434 10.5556 3.18783 10.5556 3.4V4.2H7.44444V3.4ZM12.8889 14.6C12.8889 14.8122 12.8069 15.0157 12.6611 15.1657C12.5152 15.3157 12.3174 15.4 12.1111 15.4H5.88889C5.68261 15.4 5.48478 15.3157 5.33892 15.1657C5.19306 15.0157 5.11111 14.8122 5.11111 14.6V5.8H12.8889V14.6ZM10.5556 13.8C10.7618 13.8 10.9597 13.7157 11.1055 13.5657C11.2514 13.4157 11.3333 13.2122 11.3333 13V8.2C11.3333 7.98783 11.2514 7.78434 11.1055 7.63432C10.9597 7.48429 10.7618 7.4 10.5556 7.4C10.3493 7.4 10.1514 7.48429 10.0056 7.63432C9.85972 7.78434 9.77778 7.98783 9.77778 8.2V13C9.77778 13.2122 9.85972 13.4157 10.0056 13.5657C10.1514 13.7157 10.3493 13.8 10.5556 13.8Z" fill="currentColor"/>
</svg>
