<svg width="20" height="21" viewBox="0 0 20 21" fill="none" xmlns="http://www.w3.org/2000/svg">
<path d="M9.98698 0.500007C4.46618 0.506518 -0.0194683 5.01823 6.29425e-05 10.526C0.0195942 16.0338 4.51175 20.5065 10.013 20.5C15.5273 20.487 20.0195 15.9818 19.9999 10.474C19.9804 4.96615 15.4882 0.493497 9.98698 0.500007ZM10.0065 18.6771C5.52086 18.6836 1.82948 15.0052 1.81646 10.5326C1.80995 6.02735 5.4818 2.32943 9.97396 2.31641C14.4791 2.3099 18.177 5.98828 18.177 10.4805C18.1835 14.9792 14.5052 18.6771 10.0065 18.6771Z" fill="currentColor"/>
<path d="M10.905 12.5963C10.905 11.724 10.9115 10.845 10.905 9.97265C10.8985 9.32812 10.5014 8.95051 9.91543 8.98958C9.51178 9.01562 9.16674 9.33463 9.11465 9.73827C9.10163 9.84895 9.09512 9.96614 9.09512 10.0833C9.09512 11.7825 9.09512 13.4753 9.09512 15.1745C9.09512 15.3503 9.10814 15.5325 9.16673 15.6953C9.30996 16.0794 9.72012 16.3073 10.1172 16.2552C10.5339 16.1966 10.879 15.8711 10.8855 15.4414C10.905 14.4974 10.892 13.5469 10.892 12.6029C10.8985 12.5963 10.8985 12.5963 10.905 12.5963Z" fill="currentColor"/>
<path d="M11.198 5.9427C11.1915 5.27213 10.6511 4.73828 9.98053 4.74479C9.31647 4.7513 8.78913 5.29166 8.79564 5.96875C8.80215 6.63932 9.34902 7.17968 10.0131 7.16666C10.6837 7.15364 11.2045 6.61328 11.198 5.9427Z" fill="currentColor"/>
</svg>
