<svg width="19" height="4" viewBox="0 0 19 4" fill="none" xmlns="http://www.w3.org/2000/svg">
<path d="M9.25 0C8.85444 0 8.46776 0.117298 8.13886 0.337061C7.80996 0.556824 7.55362 0.869181 7.40224 1.23463C7.25087 1.60009 7.21126 2.00222 7.28843 2.39018C7.3656 2.77814 7.55608 3.13451 7.83579 3.41421C8.11549 3.69392 8.47186 3.8844 8.85982 3.96157C9.24778 4.03874 9.64992 3.99913 10.0154 3.84776C10.3808 3.69638 10.6932 3.44004 10.9129 3.11114C11.1327 2.78224 11.25 2.39556 11.25 2C11.25 1.46957 11.0393 0.96086 10.6642 0.585787C10.2891 0.210714 9.78043 0 9.25 0ZM2.25 0C1.85444 0 1.46776 0.117298 1.13886 0.337061C0.809962 0.556824 0.553617 0.869181 0.402242 1.23463C0.250867 1.60009 0.21126 2.00222 0.28843 2.39018C0.365601 2.77814 0.556082 3.13451 0.835787 3.41421C1.11549 3.69392 1.47186 3.8844 1.85982 3.96157C2.24778 4.03874 2.64992 3.99913 3.01537 3.84776C3.38082 3.69638 3.69318 3.44004 3.91294 3.11114C4.1327 2.78224 4.25 2.39556 4.25 2C4.25 1.46957 4.03929 0.96086 3.66421 0.585787C3.28914 0.210714 2.78043 0 2.25 0ZM16.25 0C15.8544 0 15.4678 0.117298 15.1389 0.337061C14.81 0.556824 14.5536 0.869181 14.4022 1.23463C14.2509 1.60009 14.2113 2.00222 14.2884 2.39018C14.3656 2.77814 14.5561 3.13451 14.8358 3.41421C15.1155 3.69392 15.4719 3.8844 15.8598 3.96157C16.2478 4.03874 16.6499 3.99913 17.0154 3.84776C17.3808 3.69638 17.6932 3.44004 17.9129 3.11114C18.1327 2.78224 18.25 2.39556 18.25 2C18.25 1.46957 18.0393 0.96086 17.6642 0.585787C17.2891 0.210714 16.7804 0 16.25 0Z" fill="currentColor"/>
</svg>
