<svg width="20" height="16" viewBox="0 0 20 16" fill="currentColor" xmlns="http://www.w3.org/2000/svg">
<path d="M10 4.65982C8.16 4.65982 6.67 6.14982 6.67 7.98982C6.67 9.82982 8.16 11.3198 10 11.3198C11.84 11.3198 13.33 9.82982 13.33 7.98982C13.33 6.15982 11.84 4.65982 10 4.65982ZM10 9.65982C9.08 9.65982 8.33 8.90982 8.33 7.98982C8.33 7.06982 9.08 6.32982 10 6.32982C10.92 6.32982 11.67 7.07982 11.67 7.99982C11.67 8.91982 10.92 9.65982 10 9.65982Z" fill="currentColor"/>
<path d="M19.91 7.61982V7.60982L19.9 7.59982C19.89 7.57982 19.88 7.55982 19.86 7.52982C19.83 7.47982 19.79 7.39982 19.74 7.29982C19.63 7.10982 19.47 6.82982 19.25 6.49982C18.83 5.84982 18.2 4.96982 17.38 4.08982C15.74 2.34982 13.25 0.499817 10 0.499817C6.75 0.499817 4.25 2.34982 2.62 4.08982C1.8 4.96982 1.17 5.84982 0.74 6.49982C0.53 6.82982 0.37 7.10982 0.26 7.29982C0.2 7.39982 0.16 7.47982 0.13 7.52982C0.12 7.55982 0.11 7.57982 0.1 7.59982L0.09 7.60982V7.61982C-0.03 7.85982 -0.03 8.12982 0.09 8.36982V8.37982L0.1 8.39982C0.11 8.40982 0.12 8.42982 0.13 8.45982C0.16 8.51982 0.2 8.58982 0.26 8.68982C0.37 8.88982 0.53 9.15982 0.74 9.48982C1.17 10.1498 1.8 11.0198 2.62 11.8998C4.25 13.6398 6.75 15.4998 10 15.4998C13.25 15.4998 15.74 13.6398 17.38 11.8998C18.2 11.0198 18.83 10.1498 19.25 9.48982C19.47 9.15982 19.63 8.88982 19.74 8.68982C19.79 8.58982 19.83 8.51982 19.86 8.45982C19.88 8.42982 19.89 8.40982 19.9 8.39982L19.91 8.37982V8.36982C20.03 8.12982 20.03 7.85982 19.91 7.61982ZM17.85 8.58982C17.47 9.17982 16.9 9.96982 16.16 10.7598C14.67 12.3498 12.58 13.8298 10 13.8298C7.41 13.8298 5.33 12.3498 3.84 10.7598C3.1 9.96982 2.53 9.17982 2.14 8.58982C1.99 8.34982 1.87 8.14982 1.78 7.99982C1.87 7.83982 1.99 7.63982 2.14 7.40982C2.53 6.80982 3.1 6.01982 3.84 5.22982C5.33 3.63982 7.41 2.15982 10 2.15982C12.58 2.15982 14.67 3.63982 16.16 5.22982C16.9 6.01982 17.47 6.80982 17.85 7.40982C18 7.63982 18.12 7.83982 18.21 7.99982C18.12 8.14982 18 8.34982 17.85 8.58982Z" fill="currentColor"/>
</svg>
