<svg width="20" height="21" viewBox="0 0 20 21" fill="currentColor" xmlns="http://www.w3.org/2000/svg">
<path d="M1.42 0.741221C1.1 0.421221 0.57 0.421221 0.24 0.741221C-0.08 1.07122 -0.08 1.59122 0.24 1.92122L3.81 5.48122C2.3 6.78122 1.04 8.35122 0.1 10.1012C-0.03 10.3412 -0.03 10.6312 0.09 10.8712V10.8812L0.1 10.9012C0.11 10.9112 0.12 10.9312 0.13 10.9612C0.16 11.0212 0.2 11.0912 0.26 11.1912C0.37 11.3912 0.53 11.6612 0.74 11.9912C1.17 12.6512 1.8 13.5212 2.62 14.4012C4.25 16.1412 6.75 18.0012 10 18.0012H10.01C11.74 17.9712 13.41 17.4612 14.85 16.5312L18.58 20.2512C18.9 20.5812 19.43 20.5812 19.75 20.2512C20.08 19.9312 20.08 19.4012 19.75 19.0712L1.42 0.741221ZM8.35 10.0312L10.46 12.1412C10.3 12.1912 10.14 12.2212 9.97 12.2312C9.74 12.2312 9.52 12.1912 9.31 12.1012C9.1 12.0212 8.92 11.9012 8.76 11.7412C8.6 11.5812 8.47 11.3912 8.39 11.1812C8.31 10.9812 8.27 10.7512 8.27 10.5312C8.27 10.3612 8.3 10.1912 8.35 10.0312ZM9.99 16.3312C7.41 16.3312 5.33 14.8512 3.84 13.2612C3.1 12.4712 2.53 11.6812 2.14 11.0912C1.99 10.8612 1.87 10.6612 1.78 10.5012C2.62 9.05122 3.71 7.75122 4.99 6.66122L7.11 8.79122C7.03 8.92122 6.95 9.06122 6.89 9.20122C6.71 9.61122 6.61 10.0512 6.6 10.5012C6.59 10.9512 6.68 11.3912 6.84 11.8112C7.01 12.2212 7.26 12.6012 7.58 12.9212C7.9 13.2312 8.27 13.4812 8.69 13.6512C9.1 13.8212 9.55 13.9012 9.99 13.8912C10.44 13.8812 10.88 13.7912 11.29 13.6012C11.44 13.5412 11.57 13.4712 11.71 13.3812L13.64 15.3212C12.53 15.9612 11.28 16.3112 9.99 16.3312Z" fill="currentColor"/>
<path d="M8.44 4.84122C8.95 4.72122 9.47 4.66122 10 4.66122C11.29 4.66122 12.46 5.03122 13.49 5.60122C14.52 6.17122 15.42 6.93122 16.16 7.73122C16.9 8.52122 17.47 9.31122 17.85 9.91122C18 10.1412 18.12 10.3412 18.21 10.4912C17.78 11.2512 17.28 11.9612 16.73 12.6212C16.43 12.9712 16.48 13.5012 16.83 13.7912C17.18 14.0912 17.71 14.0412 18 13.6912C18.73 12.8312 19.37 11.8912 19.9 10.8912C20.03 10.6512 20.03 10.3712 19.91 10.1212V10.1112L19.9 10.1012C19.89 10.0812 19.88 10.0612 19.86 10.0312C19.83 9.98122 19.79 9.90122 19.74 9.80122C19.63 9.61122 19.47 9.33122 19.25 9.00122C18.83 8.35122 18.2 7.47122 17.38 6.59122C15.74 4.85122 13.25 3.00122 10 3.00122C9.35 3.00122 8.69 3.07122 8.06 3.22122C7.61 3.32122 7.33 3.77122 7.44 4.22122C7.54 4.67122 7.99 4.95122 8.44 4.84122Z" fill="currentColor"/>
</svg>
