<svg width="18" height="18" viewBox="0 0 18 18" fill="none" xmlns="http://www.w3.org/2000/svg">
<path d="M16.9203 6.97631C16.727 6.36307 16.2654 5.98397 15.5784 5.88362L14.5048 5.72753C13.7319 5.61603 12.9482 5.49338 12.1752 5.38188C12.0464 5.35958 11.9927 5.32613 11.9283 5.19233C11.6492 4.59024 11.3701 3.9993 11.0909 3.40836C10.8655 2.94007 10.6508 2.47178 10.4253 2.00348C10.114 1.33449 9.63091 1.0223 8.98678 1C8.35339 1 7.8703 1.34564 7.55897 2.01463C7.06514 3.07387 6.5713 4.1331 6.056 5.18118C6.01306 5.25923 5.91644 5.34843 5.8735 5.35958C4.86437 5.52683 3.75862 5.69408 2.50257 5.86132C1.75109 5.97282 1.28946 6.31847 1.08549 6.95401C0.881515 7.6007 1.04255 8.19164 1.56858 8.71568C1.93359 9.07247 2.28786 9.44042 2.65286 9.80836C3.09302 10.2544 3.52244 10.7003 3.97333 11.1352C4.10215 11.2578 4.12362 11.347 4.09142 11.5589C3.88744 12.7073 3.68347 13.9449 3.50097 15.1603C3.43655 15.6063 3.55464 16.0411 3.82303 16.3979C4.10215 16.7547 4.53157 16.9777 5.00393 17H5.05761L5.11128 16.9777C5.1757 16.9554 5.25084 16.9331 5.31526 16.9108C5.48702 16.8551 5.65879 16.7993 5.81982 16.7101C6.83969 16.1638 7.85956 15.6063 8.86869 15.0488C8.97605 14.993 9.02972 14.993 9.13708 15.0488C10.1355 15.6063 11.1446 16.1526 12.1537 16.699C12.304 16.777 12.4865 16.8662 12.6798 16.9108C13.1629 17.0223 13.6889 16.8774 14.0539 16.5094C14.4511 16.1192 14.5907 15.5394 14.4726 14.8815C14.3438 14.1791 14.2257 13.4655 14.1076 12.7519C14.0324 12.3282 13.968 11.8934 13.8929 11.4697C13.8714 11.3359 13.8929 11.269 13.9895 11.1686C14.4726 10.6892 14.945 10.2098 15.4281 9.71916C15.7716 9.37352 16.1151 9.01672 16.4694 8.67108C16.9525 8.19164 17.1135 7.6007 16.9203 6.97631ZM5.70173 11.6481C5.80909 11.0237 5.63732 10.4774 5.19717 10.0425C4.37054 9.21742 3.54391 8.38118 2.72801 7.54495C2.72801 7.54495 2.72801 7.5338 2.71728 7.5338C2.72801 7.5338 2.73875 7.5338 2.73875 7.52265C3.89818 7.3331 5.04687 7.16585 6.2063 6.98746C6.76454 6.90941 7.17249 6.58606 7.43014 6.03972C7.93471 4.95819 8.45001 3.87666 8.96531 2.80627C8.96531 2.80627 8.97605 2.79512 8.97605 2.78397C8.97605 2.79512 8.98678 2.79512 8.98678 2.80627L9.18002 3.19652C9.62017 4.09965 10.0496 5.00279 10.4683 5.91707C10.7689 6.57491 11.2412 6.93171 11.9283 7.03206C12.9911 7.177 14.0647 7.34425 15.1275 7.5115L15.267 7.5338C14.4511 8.37004 13.646 9.20627 12.8086 10.0202C12.3577 10.4774 12.1859 11.0348 12.304 11.715C12.4973 12.8523 12.6905 13.9895 12.873 15.1268C12.873 15.138 12.873 15.1603 12.873 15.1826C12.8515 15.1826 12.8408 15.1714 12.8301 15.1603C11.8317 14.6251 10.8333 14.0899 9.84562 13.5324C9.27664 13.2202 8.72913 13.2202 8.16015 13.5324C7.31205 14.0118 6.46395 14.469 5.60511 14.9261L5.11128 15.1937L5.70173 11.6481Z" fill="currentColor"/>
</svg>
