<svg width="22" height="26" viewBox="0 0 22 26" fill="none" xmlns="http://www.w3.org/2000/svg">
<path d="M21.4066 11.8359C21.4066 11.5548 21.3675 11.2737 21.3401 10.895C19.7242 10.895 18.1688 10.9009 16.6154 10.893C13.149 10.8774 11.0152 8.75356 11.0055 5.31009C11.0016 3.75428 11.0035 2.19847 11.0035 0.502108C9.29378 0.502108 7.70714 0.496252 6.11854 0.50406C2.78699 0.517725 0.610241 2.65721 0.596563 5.9777C0.578978 10.6588 0.578978 15.3379 0.596563 20.0171C0.610241 23.3376 2.78699 25.4849 6.11659 25.4927C9.36998 25.5024 12.6234 25.5024 15.8768 25.4927C19.2122 25.4849 21.3812 23.3454 21.4066 20.0249C21.4261 17.2959 21.4124 14.5669 21.4066 11.8359ZM6.18302 10.1825C6.37256 9.99119 6.63635 9.87406 6.9275 9.87406H8.81896C9.39929 9.87406 9.87021 10.3445 9.87021 10.9243C9.87021 11.2151 9.75297 11.4787 9.56148 11.668C9.37194 11.8593 9.10815 11.9765 8.81896 11.9765H6.9275C6.34521 11.9765 5.87429 11.506 5.87429 10.9243C5.87429 10.6354 5.99153 10.3718 6.18302 10.1825ZM14.9818 20.265C12.3186 20.2591 9.65722 20.2591 6.99588 20.265C6.30222 20.265 5.82935 19.9566 5.82154 19.2577C5.81567 18.5589 6.27291 18.227 6.97048 18.229C8.33437 18.2309 9.69825 18.229 11.0621 18.229C12.3596 18.227 13.659 18.2348 14.9564 18.2251C15.6872 18.2192 16.1953 18.5218 16.1777 19.2812C16.1621 19.9839 15.6677 20.267 14.9818 20.265ZM14.763 16.1246C13.5281 16.1032 12.2932 16.1188 11.0582 16.1188C9.79009 16.1188 8.52195 16.1012 7.25381 16.1246C6.48003 16.1383 5.82154 15.947 5.82349 15.0666C5.82349 14.2467 6.45658 14.0261 7.18933 14.0261C9.72561 14.032 12.2599 14.032 14.7962 14.0261C15.5231 14.0242 16.164 14.2292 16.1777 15.051C16.1914 15.9314 15.5426 16.1383 14.763 16.1246Z" fill="currentColor"/>
<path d="M13.1412 1.54452C15.5759 3.96901 18.0183 6.4013 20.4139 8.7887C18.9348 8.7887 17.3188 8.89997 15.7263 8.75747C14.1827 8.61887 13.1666 7.38515 13.1177 5.84691C13.0728 4.45508 13.106 3.06129 13.1099 1.6675C13.108 1.57771 13.1549 1.49181 13.1412 1.54452Z" fill="currentColor"/>
</svg>
