<svg width="26" height="26" viewBox="0 0 26 26" fill="none" xmlns="http://www.w3.org/2000/svg">
<path d="M23.13 7.04006C22.14 6.29006 20.91 5.84006 19.58 5.84006H14.25C13.61 5.84006 13.03 5.41006 12.89 4.79006C12.77 4.22006 12.55 3.68006 12.25 3.19006H17.04C19.73 3.19006 22.06 4.76006 23.13 7.04006Z" fill="white"/>
<path d="M23.13 7.04005C22.14 6.29005 20.91 5.84005 19.58 5.84005H14.25C13.61 5.84005 13.03 5.41005 12.89 4.79005C12.77 4.22005 12.55 3.68005 12.25 3.19005C12.04 2.86005 11.8 2.55005 11.52 2.28005C10.61 1.36005 9.35 0.800049 7.96 0.800049H4.65C2.36 0.800049 0.5 2.66005 0.5 4.95005V19.27C0.5 22.55 3.15 25.2 6.43 25.2H19.58C22.85 25.2 25.5 22.55 25.5 19.27V11.77C25.5 9.83005 24.57 8.11005 23.13 7.04005ZM17.12 17.98H8.88C8.46 17.98 8.12 17.63 8.12 17.21C8.12 16.78 8.46 16.44 8.88 16.44H17.12C17.54 16.44 17.89 16.78 17.89 17.21C17.89 17.63 17.54 17.98 17.12 17.98Z" fill="url(#paint0_linear_3256_9327)"/>
<defs>
<linearGradient id="paint0_linear_3256_9327" x1="0.5" y1="25.2" x2="24.8928" y2="0.207423" gradientUnits="userSpaceOnUse">
<stop stop-color="#0D99FF"/>
<stop offset="1" stop-color="#90D0FF"/>
</linearGradient>
</defs>
</svg>
