<svg width="14" height="18" viewBox="0 0 14 18" fill="currentColor" xmlns="http://www.w3.org/2000/svg">
<path d="M7.00004 9.83317C6.77903 9.83317 6.56707 9.92097 6.41079 10.0772C6.2545 10.2335 6.16671 10.4455 6.16671 10.6665V13.1665C6.16671 13.3875 6.2545 13.5995 6.41079 13.7558C6.56707 13.912 6.77903 13.9998 7.00004 13.9998C7.22105 13.9998 7.43302 13.912 7.5893 13.7558C7.74558 13.5995 7.83337 13.3875 7.83337 13.1665V10.6665C7.83337 10.4455 7.74558 10.2335 7.5893 10.0772C7.43302 9.92097 7.22105 9.83317 7.00004 9.83317ZM11.1667 6.49984V4.83317C11.1667 3.7281 10.7277 2.66829 9.94632 1.88689C9.16492 1.10549 8.10511 0.666504 7.00004 0.666504C5.89497 0.666504 4.83516 1.10549 4.05376 1.88689C3.27236 2.66829 2.83337 3.7281 2.83337 4.83317V6.49984C2.17033 6.49984 1.53445 6.76323 1.06561 7.23207C0.596766 7.70091 0.333374 8.3368 0.333374 8.99984V14.8332C0.333374 15.4962 0.596766 16.1321 1.06561 16.6009C1.53445 17.0698 2.17033 17.3332 2.83337 17.3332H11.1667C11.8297 17.3332 12.4656 17.0698 12.9345 16.6009C13.4033 16.1321 13.6667 15.4962 13.6667 14.8332V8.99984C13.6667 8.3368 13.4033 7.70091 12.9345 7.23207C12.4656 6.76323 11.8297 6.49984 11.1667 6.49984ZM4.50004 4.83317C4.50004 4.17013 4.76343 3.53424 5.23227 3.0654C5.70111 2.59656 6.337 2.33317 7.00004 2.33317C7.66308 2.33317 8.29897 2.59656 8.76781 3.0654C9.23665 3.53424 9.50004 4.17013 9.50004 4.83317V6.49984H4.50004V4.83317ZM12 14.8332C12 15.0542 11.9122 15.2661 11.756 15.4224C11.5997 15.5787 11.3877 15.6665 11.1667 15.6665H2.83337C2.61236 15.6665 2.4004 15.5787 2.24412 15.4224C2.08784 15.2661 2.00004 15.0542 2.00004 14.8332V8.99984C2.00004 8.77882 2.08784 8.56686 2.24412 8.41058C2.4004 8.2543 2.61236 8.1665 2.83337 8.1665H11.1667C11.3877 8.1665 11.5997 8.2543 11.756 8.41058C11.9122 8.56686 12 8.77882 12 8.99984V14.8332Z" fill="currentColor"/>
</svg>
