<svg width="160" height="37" viewBox="0 0 160 37" fill="none" xmlns="http://www.w3.org/2000/svg">
<path d="M77.1686 9.05188L74.6888 15.7863C74.0694 17.5424 73.5729 19.0711 73.2227 20.4746H73.16C72.8097 19.0294 72.3342 17.5006 71.7542 15.7863L69.3787 9.05188H67.0867L66.1147 22.9754H67.8291L68.2026 17.0042C68.3255 14.9187 68.4299 12.5826 68.4717 10.8474H68.5134C68.9055 12.4991 69.4646 14.297 70.1257 16.2595L72.3782 22.8895H73.7423L76.2013 16.1342C76.9042 14.2134 77.4818 12.4782 77.9574 10.8451H78.02C77.9991 12.5803 78.1244 14.914 78.2265 16.8557L78.5768 22.9707H80.3329L79.4653 9.04724H77.1686V9.05188Z" fill="#0D99FF"/>
<path d="M86.7936 9.05188L82.0635 22.9754H83.9216L85.3692 18.5956H90.3058L91.7928 22.9754H93.7136L88.9626 9.05188H86.7936ZM85.7404 17.1898L87.1044 13.1626C87.3735 12.3158 87.6009 11.4691 87.8073 10.6433H87.8491C88.0556 11.4482 88.262 12.2764 88.5729 13.1835L89.9369 17.1921H85.7404V17.1898Z" fill="#0D99FF"/>
<path d="M104.744 14.877C104.744 17.0461 104.786 18.7395 104.951 20.6L104.909 20.6209C104.248 19.1965 103.443 17.7281 102.408 16.0973L97.9474 9.052H95.9849V22.9755H97.6783V17.0252C97.6783 14.7123 97.6366 13.0374 97.5345 11.2813L97.5971 11.2605C98.3 12.7683 99.228 14.3597 100.2 15.9094L104.622 22.9755H106.44V9.052H104.747V14.877H104.744Z" fill="#0D99FF"/>
<path d="M113.483 9.05188L108.753 22.9754H110.611L112.057 18.5956H116.993L118.48 22.9754H120.401L115.65 9.05188H113.483ZM112.43 17.1898L113.794 13.1626C114.063 12.3158 114.291 11.4691 114.497 10.6433H114.539C114.745 11.4482 114.952 12.2764 115.263 13.1835L116.627 17.1921H112.43V17.1898Z" fill="#0D99FF"/>
<path d="M128.377 17.1086H131.207V21.2611C130.794 21.4675 129.989 21.6322 128.81 21.6322C125.567 21.6322 123.44 19.5467 123.44 16.0136C123.44 12.5223 125.651 10.416 129.038 10.416C130.443 10.416 131.371 10.6851 132.116 11.0145L132.55 9.54835C131.951 9.25837 130.692 8.90808 129.079 8.90808C124.412 8.90808 121.561 11.9447 121.54 16.0972C121.54 18.2662 122.285 20.1243 123.482 21.2819C124.846 22.5833 126.581 23.1192 128.687 23.1192C130.566 23.1192 132.158 22.6437 132.963 22.356V15.6634H128.377V17.1086Z" fill="#0D99FF"/>
<path d="M137.734 16.4474H143.147V14.9604H137.734V10.5598H143.457V9.05188H135.937V22.9754H143.766V21.4675H137.734V16.4474Z" fill="#0D99FF"/>
<path d="M154.32 19.1524C153.991 17.7072 153.348 16.7143 152.274 16.3431V16.2805C153.74 15.784 154.898 14.5661 154.898 12.7265C154.898 11.6525 154.506 10.7013 153.803 10.082C152.935 9.29786 151.697 8.94525 149.776 8.94525C148.537 8.94525 147.236 9.04964 146.326 9.23523V22.9731H148.124V16.9416H149.817C151.448 17.0043 152.193 17.7257 152.606 19.6488C152.998 21.3841 153.309 22.5811 153.536 22.9754H155.394C155.107 22.4372 154.775 21.0964 154.32 19.1524ZM149.961 15.5799H148.122V10.4972C148.412 10.4137 149.031 10.3325 149.899 10.3325C151.799 10.3534 153.1 11.1375 153.1 12.9353C153.102 14.5267 151.884 15.5799 149.961 15.5799Z" fill="#0D99FF"/>
<path d="M33.474 10.9309C32.1308 9.97983 30.4165 9.5321 27.7719 9.5321C26.1805 9.5321 24.6726 9.62954 23.5173 9.80352V22.6599C24.3014 22.7573 25.459 22.8548 27.0922 22.8548C29.8179 22.8548 32.0496 22.3119 33.5157 21.1659C34.8589 20.0988 35.8286 18.3706 35.8286 15.8652C35.8286 13.5523 34.9215 11.9401 33.474 10.9309ZM27.7719 20.5442C27.3798 20.5442 26.946 20.5442 26.6769 20.4862V11.9215C26.946 11.8635 27.4007 11.8055 28.1013 11.8055C30.8085 11.8055 32.502 13.2415 32.4811 15.9603C32.4834 19.0874 30.6229 20.5628 27.7719 20.5442Z" fill="white"/>
<path d="M44.0293 9.41608C39.9186 9.41608 37.2532 12.3483 37.2532 16.2711C37.2532 19.999 39.6704 22.9313 43.802 22.9313C47.871 22.9313 50.6408 20.3284 50.6408 16.0368C50.6408 12.4272 48.3071 9.41608 44.0293 9.41608ZM43.969 20.5813C41.8626 20.5813 40.5821 18.7742 40.5821 16.2131C40.5821 13.6683 41.8209 11.766 43.9505 11.766C46.1195 11.766 47.3188 13.7866 47.3188 16.1342C47.3142 18.6791 46.0963 20.5813 43.969 20.5813Z" fill="white"/>
<path d="M59.8325 20.4655C57.0232 20.4655 55.3715 18.8138 55.3715 16.1924C55.3715 13.2787 57.3132 11.8613 59.814 11.8613C60.9298 11.8613 61.8183 12.0933 62.4586 12.3462L63.0988 9.99621C62.5421 9.72479 61.301 9.41394 59.6701 9.41394C55.455 9.41394 52.0681 11.8985 52.0681 16.3664C52.0681 20.0943 54.548 22.9106 59.3616 22.9106C61.0551 22.9106 62.3565 22.6183 62.9364 22.3469L62.4609 20.0363C61.8368 20.2706 60.7837 20.4655 59.8325 20.4655Z" fill="white"/>
<path d="M128.223 34.5654L125.994 28.9419H125.07L123.473 36.9314H124.567L125.749 31.0379L127.74 35.9609H128.266L132.042 31.1495L130.881 36.9314H131.975L133.574 28.9419H132.593L128.223 34.5654Z" fill="#19D6FF"/>
<path d="M139.053 31.1388C138.65 30.9299 138.174 30.8254 137.627 30.8254C136.973 30.8254 136.388 30.9803 135.875 31.2882C135.362 31.5961 134.956 32.0175 134.659 32.5487C134.362 33.0817 134.215 33.6903 134.215 34.3745C134.215 34.9075 134.332 35.3703 134.569 35.761C134.805 36.1536 135.14 36.4579 135.574 36.674C136.008 36.8919 136.521 36.9999 137.115 36.9999C137.58 36.9999 138.028 36.9261 138.462 36.7766C138.896 36.629 139.258 36.4129 139.546 36.132L139.078 35.3451C138.866 35.5576 138.596 35.7268 138.268 35.8529C137.94 35.9789 137.587 36.0419 137.206 36.0419C136.559 36.0419 136.076 35.8925 135.761 35.5918C135.446 35.2911 135.288 34.8661 135.288 34.3187C135.288 34.2953 135.291 34.2737 135.291 34.2503H140.254C140.277 34.1278 140.295 33.9982 140.312 33.8559C140.326 33.7155 140.335 33.5768 140.335 33.44C140.335 32.8926 140.223 32.4244 139.998 32.0355C139.771 31.6465 139.456 31.3476 139.053 31.1388ZM135.572 32.9646C135.763 32.5811 136.031 32.2804 136.377 32.0625C136.723 31.8446 137.124 31.7366 137.582 31.7366C137.971 31.7366 138.302 31.814 138.581 31.9707C138.859 32.1273 139.062 32.3506 139.192 32.6441C139.292 32.871 139.33 33.1411 139.312 33.449H135.398C135.443 33.2797 135.498 33.1159 135.572 32.9646Z" fill="#19D6FF"/>
<path d="M146.798 31.9184C146.797 31.913 146.795 31.9076 146.791 31.904C146.593 31.5511 146.312 31.281 145.947 31.0991C145.581 30.9173 145.136 30.8254 144.611 30.8254C144.123 30.8254 143.671 30.9137 143.253 31.0883C142.835 31.263 142.471 31.5097 142.163 31.8302C141.856 32.1507 141.616 32.5271 141.445 32.961C141.274 33.395 141.188 33.8704 141.188 34.3871C141.188 34.9345 141.303 35.4027 141.535 35.7917C141.767 36.1788 142.084 36.4777 142.488 36.6866C142.891 36.8955 143.346 36.9999 143.858 36.9999C144.36 36.9999 144.809 36.9081 145.205 36.7262C145.498 36.5912 145.763 36.4111 145.995 36.1896L145.844 36.9315H146.894L148.583 28.4612H147.486L146.798 31.9184ZM145.32 35.7106C144.962 35.9321 144.555 36.042 144.099 36.042C143.521 36.042 143.076 35.8889 142.763 35.5846C142.452 35.2803 142.295 34.8661 142.295 34.3403C142.295 33.8379 142.398 33.395 142.603 33.0096C142.808 32.6261 143.089 32.3254 143.447 32.1075C143.806 31.8914 144.209 31.7816 144.657 31.7816C145.235 31.7816 145.68 31.9329 145.993 32.2318C146.305 32.5325 146.462 32.9484 146.462 33.4814C146.462 33.9766 146.361 34.416 146.159 34.7995C145.956 35.1866 145.677 35.4892 145.32 35.7106Z" fill="#19D6FF"/>
<path d="M151.152 28.2898C150.916 28.2898 150.725 28.3636 150.581 28.5131C150.437 28.6607 150.365 28.8426 150.365 29.0551C150.365 29.2387 150.428 29.3936 150.554 29.5232C150.68 29.6529 150.846 29.7177 151.051 29.7177C151.294 29.7177 151.489 29.6457 151.633 29.4998C151.777 29.3558 151.849 29.1649 151.849 28.929C151.849 28.7544 151.782 28.6031 151.649 28.4789C151.516 28.3528 151.35 28.2898 151.152 28.2898Z" fill="#19D6FF"/>
<path d="M148.983 36.9315H150.08L151.279 30.8813H150.182L148.983 36.9315Z" fill="#19D6FF"/>
<path d="M157.967 30.8811L157.767 31.9129C157.765 31.9093 157.763 31.9057 157.761 31.9021C157.563 31.5491 157.282 31.2791 156.917 31.0972C156.551 30.9153 156.107 30.8235 155.581 30.8235C155.093 30.8235 154.641 30.9117 154.223 31.0864C153.805 31.261 153.442 31.5077 153.134 31.8283C152.826 32.1488 152.586 32.5251 152.415 32.9591C152.244 33.393 152.158 33.8684 152.158 34.3852C152.158 34.9326 152.273 35.4008 152.505 35.7897C152.738 36.1768 153.054 36.4758 153.458 36.6846C153.861 36.8935 154.317 36.9979 154.828 36.9979C155.498 36.9979 156.074 36.8377 156.557 36.519C156.703 36.4217 156.838 36.3119 156.964 36.1912L156.812 36.9295H157.862L159.061 30.8793H157.967V30.8811ZM156.288 35.7105C155.93 35.932 155.523 36.0418 155.068 36.0418C154.49 36.0418 154.045 35.8887 153.731 35.5844C153.42 35.2801 153.263 34.866 153.263 34.3402C153.263 33.8378 153.366 33.3948 153.571 33.0095C153.777 32.6259 154.057 32.3252 154.416 32.1074C154.774 31.8913 155.177 31.7814 155.626 31.7814C156.204 31.7814 156.649 31.9327 156.962 32.2316C157.273 32.5323 157.43 32.9483 157.43 33.4813C157.43 33.9764 157.329 34.4158 157.128 34.7993C156.926 35.1865 156.647 35.489 156.288 35.7105Z" fill="#19D6FF"/>
<path d="M15.8536 8.28845H0V24.142H15.8536V8.28845Z" fill="#0D99FF"/>
<path d="M19.2548 4.45874H5.83936V18.1363H19.2548V4.45874Z" fill="#19D6FF"/>
<path d="M23.1151 0.00012207H16.1812V6.96882H23.1151V0.00012207Z" fill="white"/>
</svg>
