<svg width="490" height="60" viewBox="0 0 490 60" fill="none" xmlns="http://www.w3.org/2000/svg">
<path d="M241.17 14.6788L237.148 25.5994C236.144 28.4472 235.339 30.9262 234.771 33.2021H234.669C234.101 30.8585 233.33 28.3794 232.389 25.5994L228.537 14.6788H224.821L223.244 37.2574H226.024L226.63 27.5744C226.829 24.1925 226.999 20.4043 227.066 17.5905H227.134C227.77 20.2689 228.677 23.1843 229.749 26.3668L233.401 37.1182H235.613L239.601 26.1637C240.741 23.0489 241.677 20.235 242.449 17.5867H242.55C242.516 20.4006 242.72 24.185 242.885 27.3336L243.453 37.2499H246.301L244.894 14.6713H241.17V14.6788Z" fill="#0D99FF"/>
<path d="M256.778 14.6788L249.107 37.2575H252.12L254.468 30.1551H262.473L264.884 37.2575H267.999L260.295 14.6788H256.778ZM255.07 27.8754L257.282 21.3448C257.718 19.9718 258.087 18.5987 258.422 17.2595H258.489C258.824 18.5648 259.159 19.9078 259.663 21.3787L261.875 27.8792H255.07V27.8754Z" fill="#0D99FF"/>
<path d="M285.887 24.125C285.887 27.6423 285.955 30.3884 286.222 33.4054L286.154 33.4393C285.082 31.1295 283.777 28.7483 282.099 26.1037L274.865 14.679H271.682V37.2576H274.429V27.6084C274.429 23.8579 274.361 21.1418 274.195 18.2941L274.297 18.2602C275.437 20.7054 276.941 23.2861 278.518 25.799L285.688 37.2576H288.637V14.679H285.891V24.125H285.887Z" fill="#0D99FF"/>
<path d="M300.058 14.6788L292.388 37.2575H295.401L297.745 30.1551H305.75L308.161 37.2575H311.276L303.572 14.6788H300.058ZM298.35 27.8754L300.562 21.3448C300.999 19.9718 301.367 18.5987 301.702 17.2595H301.77C302.105 18.5648 302.439 19.9078 302.944 21.3787L305.156 27.8792H298.35V27.8754Z" fill="#0D99FF"/>
<path d="M324.209 27.7437H328.799V34.4774C328.129 34.8122 326.824 35.0793 324.913 35.0793C319.654 35.0793 316.204 31.6974 316.204 25.9681C316.204 20.3065 319.789 16.8908 325.282 16.8908C327.561 16.8908 329.066 17.3271 330.274 17.8613L330.977 15.4838C330.006 15.0136 327.964 14.4456 325.349 14.4456C317.78 14.4456 313.157 19.3698 313.123 26.1035C313.123 29.6209 314.331 32.6341 316.272 34.5113C318.484 36.6217 321.298 37.4906 324.714 37.4906C327.761 37.4906 330.341 36.7195 331.647 36.253V25.4001H324.209V27.7437Z" fill="#0D99FF"/>
<path d="M339.384 26.6716H348.161V24.2603H339.384V17.124H348.665V14.6788H336.469V37.2575H349.165V34.8122H339.384V26.6716Z" fill="#0D99FF"/>
<path d="M366.28 31.058C365.746 28.7144 364.704 27.1043 362.962 26.5024V26.4008C365.34 25.5958 367.217 23.6208 367.217 20.6377C367.217 18.8959 366.581 17.3536 365.441 16.3492C364.034 15.0777 362.026 14.5059 358.911 14.5059C356.902 14.5059 354.792 14.6751 353.317 14.9761V37.2538H356.232V27.473H358.979C361.623 27.5745 362.831 28.7445 363.5 31.863C364.136 34.6769 364.64 36.618 365.009 37.2575H368.022C367.556 36.3848 367.018 34.2104 366.28 31.058ZM359.212 25.2647H356.229V17.0225C356.699 16.8871 357.703 16.7554 359.11 16.7554C362.191 16.7893 364.302 18.0608 364.302 20.9762C364.305 23.5569 362.33 25.2647 359.212 25.2647Z" fill="#0D99FF"/>
<path d="M170.313 17.726C168.135 16.1837 165.355 15.4576 161.067 15.4576C158.486 15.4576 156.041 15.6156 154.167 15.8978V36.7459C155.439 36.9039 157.316 37.0619 159.965 37.0619C164.385 37.0619 168.004 36.1817 170.381 34.3233C172.559 32.5929 174.132 29.7903 174.132 25.7275C174.132 21.9769 172.661 19.3624 170.313 17.726ZM161.067 33.3151C160.431 33.3151 159.728 33.3151 159.291 33.2211V19.3323C159.728 19.2383 160.465 19.1443 161.601 19.1443C165.991 19.1443 168.737 21.4728 168.703 25.8817C168.707 30.9527 165.69 33.3452 161.067 33.3151Z" fill="#2D4347"/>
<path d="M187.43 15.2694C180.764 15.2694 176.442 20.0244 176.442 26.3857C176.442 32.431 180.362 37.1859 187.062 37.1859C193.66 37.1859 198.152 32.9651 198.152 26.0057C198.152 20.1523 194.367 15.2694 187.43 15.2694ZM187.332 33.3752C183.917 33.3752 181.84 30.4447 181.84 26.2916C181.84 22.1649 183.849 19.0802 187.302 19.0802C190.82 19.0802 192.765 22.3567 192.765 26.1637C192.757 30.2905 190.782 33.3752 187.332 33.3752Z" fill="#2D4347"/>
<path d="M213.057 33.1874C208.501 33.1874 205.823 30.509 205.823 26.2581C205.823 21.5332 208.972 19.2347 213.027 19.2347C214.836 19.2347 216.277 19.6109 217.315 20.021L218.354 16.2102C217.451 15.7701 215.438 15.266 212.794 15.266C205.958 15.266 200.466 19.2949 200.466 26.5403C200.466 32.5855 204.487 37.1524 212.293 37.1524C215.039 37.1524 217.15 36.6784 218.09 36.2383L217.319 32.4915C216.307 32.8714 214.599 33.1874 213.057 33.1874Z" fill="#2D4347"/>
<path d="M323.96 56.0521L320.345 46.933H318.847L316.257 59.889H318.032L319.948 50.3319L323.177 58.3151H324.03L330.153 50.5129L328.27 59.889H330.045L332.638 46.933H331.047L323.96 56.0521Z" fill="#2D4347"/>
<path d="M341.522 50.4954C340.868 50.1567 340.098 49.9873 339.21 49.9873C338.15 49.9873 337.201 50.2384 336.369 50.7377C335.536 51.2371 334.879 51.9203 334.398 52.7817C333.916 53.6461 333.676 54.633 333.676 55.7426C333.676 56.6069 333.866 57.3574 334.252 57.991C334.634 58.6275 335.177 59.121 335.881 59.4714C336.585 59.8247 337.417 59.9999 338.381 59.9999C339.134 59.9999 339.861 59.8802 340.565 59.6379C341.268 59.3984 341.855 59.048 342.323 58.5925L341.563 57.3165C341.219 57.661 340.781 57.9355 340.249 58.1399C339.718 58.3443 339.146 58.4465 338.527 58.4465C337.478 58.4465 336.696 58.2041 336.185 57.7165C335.674 57.2289 335.417 56.5398 335.417 55.6521C335.417 55.6141 335.423 55.5791 335.423 55.5411H343.47C343.508 55.3426 343.537 55.1323 343.564 54.9016C343.587 54.6739 343.602 54.449 343.602 54.2271C343.602 53.3395 343.42 52.5803 343.055 51.9495C342.688 51.3188 342.177 50.8341 341.522 50.4954ZM335.878 53.4563C336.188 52.8343 336.623 52.3467 337.183 51.9933C337.744 51.64 338.395 51.4648 339.137 51.4648C339.768 51.4648 340.305 51.5904 340.757 51.8444C341.207 52.0985 341.537 52.4605 341.747 52.9365C341.911 53.3044 341.972 53.7424 341.943 54.2417H335.595C335.668 53.9672 335.758 53.7015 335.878 53.4563Z" fill="#2D4347"/>
<path d="M354.083 51.7598C354.08 51.7511 354.077 51.7423 354.071 51.7365C353.75 51.1641 353.294 50.7261 352.701 50.4312C352.109 50.1363 351.387 49.9874 350.535 49.9874C349.743 49.9874 349.01 50.1305 348.333 50.4137C347.656 50.6969 347.066 51.097 346.566 51.6167C346.067 52.1365 345.679 52.7468 345.401 53.4505C345.124 54.1542 344.984 54.9251 344.984 55.7631C344.984 56.6508 345.171 57.41 345.547 58.0407C345.924 58.6685 346.438 59.1532 347.092 59.4919C347.746 59.8307 348.485 60 349.314 60C350.129 60 350.856 59.8511 351.498 59.5562C351.974 59.3372 352.404 59.0452 352.78 58.686L352.535 59.8891H354.237L356.976 46.1534H355.198L354.083 51.7598ZM351.685 57.9093C351.104 58.2685 350.444 58.4466 349.705 58.4466C348.768 58.4466 348.047 58.1984 347.539 57.7049C347.034 57.2114 346.78 56.5398 346.78 55.6872C346.78 54.8725 346.946 54.1542 347.279 53.5293C347.612 52.9074 348.067 52.4197 348.648 52.0664C349.229 51.716 349.884 51.5379 350.611 51.5379C351.548 51.5379 352.269 51.7832 352.777 52.2679C353.282 52.7555 353.536 53.43 353.536 54.2944C353.536 55.0974 353.373 55.8098 353.046 56.4318C352.716 57.0596 352.263 57.5502 351.685 57.9093Z" fill="#2D4347"/>
<path d="M361.143 45.8755C360.76 45.8755 360.451 45.9952 360.217 46.2376C359.983 46.477 359.867 46.7719 359.867 47.1165C359.867 47.4143 359.969 47.6654 360.173 47.8757C360.378 48.0859 360.646 48.191 360.979 48.191C361.373 48.191 361.689 48.0742 361.922 47.8377C362.156 47.6041 362.273 47.2946 362.273 46.9121C362.273 46.6288 362.165 46.3836 361.949 46.1821C361.733 45.9777 361.464 45.8755 361.143 45.8755Z" fill="#2D4347"/>
<path d="M357.625 59.889H359.403L361.348 50.0779H359.57L357.625 59.889Z" fill="#2D4347"/>
<path d="M372.193 50.0776L371.869 51.7507C371.866 51.7449 371.863 51.739 371.86 51.7332C371.539 51.1609 371.084 50.7229 370.491 50.428C369.898 50.133 369.177 49.9841 368.324 49.9841C367.533 49.9841 366.8 50.1272 366.123 50.4104C365.445 50.6937 364.855 51.0937 364.356 51.6135C363.857 52.1332 363.468 52.7435 363.191 53.4472C362.914 54.151 362.773 54.9218 362.773 55.7599C362.773 56.6475 362.96 57.4067 363.337 58.0375C363.714 58.6653 364.228 59.15 364.882 59.4887C365.536 59.8274 366.274 59.9968 367.104 59.9968C368.19 59.9968 369.124 59.7369 369.907 59.22C370.143 59.0624 370.362 58.8842 370.567 58.6886L370.322 59.8858H372.024L373.969 50.0746H372.193V50.0776ZM369.472 57.909C368.891 58.2681 368.231 58.4463 367.492 58.4463C366.555 58.4463 365.834 58.1981 365.325 57.7046C364.82 57.2111 364.566 56.5395 364.566 55.6869C364.566 54.8722 364.733 54.1539 365.066 53.529C365.398 52.907 365.854 52.4194 366.435 52.0661C367.016 51.7157 367.67 51.5376 368.397 51.5376C369.335 51.5376 370.056 51.7828 370.564 52.2676C371.069 52.7552 371.323 53.4297 371.323 54.294C371.323 55.097 371.16 55.8095 370.833 56.4315C370.506 57.0593 370.053 57.5498 369.472 57.909Z" fill="#2D4347"/>
<path d="M141.74 13.4408H116.031V39.1493H141.74V13.4408Z" fill="#0D99FF"/>
<path d="M147.255 7.23047H125.5V29.4103H147.255V7.23047Z" fill="#1AD6FF"/>
<path d="M153.515 0.000366211H142.271V11.301H153.515V0.000366211Z" fill="#2D4347"/>
</svg>
