<svg width="20" height="16" viewBox="0 0 20 16" xmlns="http://www.w3.org/2000/svg">
    <path fillRule="evenodd" clipRule="evenodd" d="M3.33332 2.16648C2.87689 2.16648 2.49999 2.54339 2.49999 2.99982V12.9998C2.49999 13.4562 2.87689 13.8331 3.33332 13.8331H16.6667C17.1231 13.8331 17.5 13.4562 17.5 12.9998V2.99982C17.5 2.54339 17.1231 2.16648 16.6667 2.16648H3.33332ZM0.833324 2.99982C0.833324 1.62291 1.95642 0.499817 3.33332 0.499817H16.6667C18.0436 0.499817 19.1667 1.62291 19.1667 2.99982V12.9998C19.1667 14.3767 18.0436 15.4998 16.6667 15.4998H3.33332C1.95642 15.4998 0.833324 14.3767 0.833324 12.9998V2.99982Z" fill="currentColor" />
    <path fillRule="evenodd" clipRule="evenodd" d="M0.983964 2.52193C1.24789 2.14489 1.7675 2.05319 2.14454 2.31712L9.99999 7.81594L17.8554 2.31712C18.2325 2.05319 18.7521 2.14489 19.016 2.52193C19.2799 2.89897 19.1882 3.41858 18.8112 3.68251L10.4779 9.51584C10.1909 9.7167 9.80904 9.7167 9.52211 9.51584L1.18877 3.68251C0.81173 3.41858 0.720035 2.89897 0.983964 2.52193Z" fill="currentColor" />
</svg>