<svg width="18" height="18" viewBox="0 0 18 18" fill="none" xmlns="http://www.w3.org/2000/svg">
<path d="M17.7512 8.51678C17.4745 8.0443 17.0097 7.68993 16.4674 7.55034C16.3014 7.50738 16.1354 7.48591 15.9694 7.46443C15.9362 7.46443 15.9141 7.45369 15.8809 7.45369V7.18524C15.8809 6.65906 15.8809 5.87517 15.8809 5.62819C15.8809 4.28591 15.0177 3.43758 13.6454 3.43758C13.2691 3.43758 12.9039 3.43758 12.5276 3.43758C11.6755 3.43758 10.7901 3.44832 9.91587 3.42685C9.68346 3.42685 9.40679 3.3302 9.20759 3.1906C8.59892 2.76107 7.99024 2.29933 7.4037 1.84832L6.97209 1.51544C6.50729 1.16107 6.00928 1.02148 5.43381 1C4.85833 1 4.29392 1 3.71845 1C3.18724 1 2.6671 1 2.1359 1C0.907479 1.01074 0.0110668 1.88054 0 3.06174C0 6.70201 0 11.3087 0 14.9383C0 16.0872 0.929612 16.9893 2.11376 16.9893C4.28286 16.9893 6.27488 17 8.13411 17C10.27 17 12.2399 17 14.1323 16.9893C15.0619 16.9893 15.7591 16.5168 16.0358 15.7007C16.6888 13.8215 17.3196 11.8886 17.9172 9.96644C18.0721 9.48322 18.0057 8.96778 17.7512 8.51678ZM2.1359 15.0027L3.91765 9.53691C4.05045 9.12886 4.13899 9.06443 4.59273 9.06443C6.44089 9.06443 8.30011 9.06443 10.1483 9.06443C11.9964 9.06443 13.8557 9.06443 15.7038 9.06443C15.903 9.06443 16.1576 9.09664 16.2682 9.24698C16.3789 9.39732 16.3346 9.6443 16.2793 9.82685C15.7259 11.5342 15.1726 13.2309 14.6082 14.9383C14.4865 15.3248 14.3869 15.3893 13.9663 15.3893C10.2921 15.3893 6.61796 15.3893 2.93271 15.3893C2.41257 15.3893 2.22443 15.3034 2.1691 15.2282C2.14696 15.196 2.11376 15.1423 2.1359 15.0027ZM14.2209 7.21745V7.46443H4.52633C3.34218 7.46443 2.64497 7.95839 2.29083 9.06443L1.64896 11.0188V8.72081C1.64896 6.88456 1.64896 4.73691 1.64896 3.16913C1.64896 2.72886 1.78176 2.6 2.2355 2.6H2.88844C3.20938 2.6 3.54138 2.6 3.87339 2.6C4.37139 2.6 4.88047 2.6 5.36741 2.61074C5.56661 2.61074 5.81008 2.69664 5.97608 2.81477C6.67329 3.30872 7.35943 3.8349 8.02344 4.35034L8.26691 4.54362C8.72065 4.88725 9.22972 5.05906 9.8052 5.04832C10.8233 5.03758 11.8415 5.03758 12.8486 5.04832H13.6122C14.0881 5.04832 14.2209 5.16644 14.2209 5.63893C14.2319 5.88591 14.2209 6.68054 14.2209 7.21745Z" fill="currentColor"/>
</svg>
