<svg width="20" height="21" viewBox="0 0 20 21" fill="none" xmlns="http://www.w3.org/2000/svg">
<path d="M12.9351 18.0417C12.6301 19.5859 11.5336 20.5917 10.1256 20.6436C8.60725 20.702 7.51068 19.7806 7.03702 18.0417C6.03129 18.0417 5.01908 18.0482 4.00686 18.0417C3.57213 18.0352 3.1374 18.0482 2.71564 17.9768C1.59961 17.8016 0.808009 16.8218 0.833963 15.6928C0.859918 14.5962 1.69694 13.6359 2.78053 13.4867C3.46832 13.3959 3.45534 13.4867 3.45534 12.6886C3.45534 11.4623 3.44236 10.2359 3.46183 9.00961C3.50076 6.44663 5.10343 4.11075 7.49122 3.15044C7.71183 3.0596 7.78969 2.96876 7.77671 2.7222C7.71183 1.39853 8.72404 0.340901 10.0218 0.353878C11.3065 0.366855 12.2927 1.43747 12.2149 2.74815C12.2019 2.98823 12.2798 3.06609 12.4809 3.16342C15.0309 4.37029 16.413 6.37525 16.5233 9.20426C16.5752 10.4046 16.5363 11.6115 16.5363 12.8184C16.5363 13.4088 16.5363 13.3959 17.1137 13.4802C18.1065 13.6295 18.7748 14.1745 19.0733 15.1348C19.4561 16.3676 18.6191 17.7432 17.3473 17.9768C17.1073 18.0222 16.8672 18.0417 16.6271 18.0417C15.3943 18.0417 14.1744 18.0417 12.9351 18.0417ZM9.9958 16.7115C12.2538 16.7115 14.5183 16.7115 16.7763 16.7115C17.3992 16.7115 17.8405 16.3092 17.8534 15.7512C17.8599 15.2191 17.4187 14.7974 16.8218 14.7585C15.8225 14.6936 15.2321 14.0772 15.2256 13.0779C15.2191 11.8711 15.2256 10.6707 15.2256 9.4638C15.2256 8.78251 15.1218 8.12067 14.8947 7.47831C13.7851 4.37029 10.184 3.00121 7.36793 4.66228C5.64198 5.68098 4.77251 7.23823 4.75305 9.24968C4.74007 10.5409 4.74656 11.8256 4.74656 13.1169C4.74656 13.8046 4.44809 14.3237 3.8187 14.6092C3.60457 14.7066 3.35152 14.7325 3.11144 14.7585C2.35877 14.8298 1.91106 15.5111 2.22251 16.1535C2.41717 16.5558 2.75457 16.718 3.20228 16.718C5.47328 16.7115 7.73778 16.7115 9.9958 16.7115ZM8.43206 18.0546C8.54885 18.8073 9.23015 19.3329 10.0477 19.3264C10.8004 19.3134 11.4687 18.7554 11.5595 18.0546C10.5149 18.0546 9.47022 18.0546 8.43206 18.0546ZM9.09389 2.67029C9.7103 2.67029 10.3008 2.67029 10.8912 2.67029C10.9172 2.07334 10.5473 1.67754 9.98931 1.67754C9.43778 1.67754 9.07442 2.07334 9.09389 2.67029Z" fill="currentColor"/>
</svg>
