<svg width="18" height="19" viewBox="0 0 18 19" fill="none" xmlns="http://www.w3.org/2000/svg">
<path d="M10.7778 9.5C10.7778 9.14839 10.6735 8.80467 10.4782 8.51232C10.2828 8.21997 10.0052 7.9921 9.68032 7.85755C9.35547 7.72299 8.99802 7.68779 8.65317 7.75638C8.30831 7.82498 7.99154 7.9943 7.74292 8.24292C7.49429 8.49155 7.32497 8.80832 7.25638 9.15317C7.18778 9.49803 7.22299 9.85548 7.35754 10.1803C7.4921 10.5052 7.71996 10.7828 8.01231 10.9782C8.30467 11.1735 8.64838 11.2778 8.99999 11.2778C9.47149 11.2778 9.92367 11.0905 10.2571 10.7571C10.5905 10.4237 10.7778 9.9715 10.7778 9.5ZM10.7778 3.27778C10.7778 2.92617 10.6735 2.58245 10.4782 2.2901C10.2828 1.99774 10.0052 1.76988 9.68032 1.63533C9.35547 1.50077 8.99802 1.46556 8.65317 1.53416C8.30831 1.60276 7.99154 1.77207 7.74292 2.0207C7.49429 2.26933 7.32497 2.5861 7.25638 2.93095C7.18778 3.27581 7.22299 3.63326 7.35754 3.9581C7.4921 4.28295 7.71996 4.5606 8.01231 4.75595C8.30467 4.95129 8.64838 5.05556 8.99999 5.05556C9.47149 5.05556 9.92367 4.86826 10.2571 4.53486C10.5905 4.20146 10.7778 3.74927 10.7778 3.27778ZM10.7778 15.7222C10.7778 15.3706 10.6735 15.0269 10.4782 14.7345C10.2828 14.4422 10.0052 14.2143 9.68032 14.0798C9.35547 13.9452 8.99802 13.91 8.65317 13.9786C8.30831 14.0472 7.99154 14.2165 7.74292 14.4651C7.49429 14.7138 7.32497 15.0305 7.25638 15.3754C7.18778 15.7203 7.22299 16.0777 7.35754 16.4025C7.4921 16.7274 7.71996 17.005 8.01231 17.2004C8.30467 17.3957 8.64838 17.5 8.99999 17.5C9.47149 17.5 9.92367 17.3127 10.2571 16.9793C10.5905 16.6459 10.7778 16.1937 10.7778 15.7222Z" fill="currentColor"/>
</svg>
