<svg width="18" height="18" viewBox="0 0 18 18" fill="none" xmlns="http://www.w3.org/2000/svg">
<path d="M1.78666 8.48331C2.03866 8.54339 2.30265 8.57944 2.55464 8.57944C3.21462 8.57944 3.8866 8.59146 4.54657 8.59146C5.15856 8.59146 5.77054 8.59146 6.38252 8.57944C7.61848 8.54339 8.55445 7.57009 8.57845 6.33244C8.59045 5.65955 8.57845 4.97463 8.57845 4.28972C8.57845 3.62884 8.57845 2.97997 8.57845 2.31909C8.56645 0.949266 7.60648 0 6.22652 0C5.77054 0 5.32655 0 4.88256 0C4.07859 0 3.27462 0 2.47064 0C0.95869 0 0.0467192 0.865154 0.02272 2.37917C-0.0132789 3.66489 -0.00127927 4.9506 0.02272 6.24833C0.0467192 7.498 0.6587 8.24299 1.78666 8.48331ZM1.52267 2.41522C1.53467 1.81442 1.69067 1.51402 2.47064 1.51402H6.22652C6.7905 1.51402 7.07849 1.79039 7.09049 2.34312C7.09049 2.78772 7.09049 3.22029 7.09049 3.66489V4.97463C7.09049 5.41923 7.09049 5.86382 7.09049 6.30841C7.06649 6.74099 6.7785 7.05341 6.34652 7.06542C5.74654 7.07744 5.14656 7.07744 4.54657 7.07744C3.99459 7.07744 3.44261 7.07744 2.90263 7.06542H2.56664C2.43464 7.06542 2.27865 7.04139 2.09865 7.00534C1.75066 6.94526 1.53467 6.86115 1.52267 6.21228C1.49867 4.89052 1.49867 3.61682 1.52267 2.41522Z" fill="currentColor"/>
<path d="M11.6383 8.56742C12.4063 8.57944 13.1623 8.59146 13.9303 8.59146C14.4583 8.59146 14.9742 8.59146 15.5022 8.57944C17.0982 8.55541 17.9621 7.70227 17.9861 6.11616C18.0101 4.80641 17.9981 3.49666 17.9861 2.1749C17.9621 0.99733 16.9542 0.012016 15.7902 0C15.5382 0 15.2742 0 15.0222 0C14.6023 0 14.1823 0 13.7623 0H13.7503C13.3183 0 12.8983 0 12.4663 0C12.2023 0 11.9503 0 11.6863 0C10.4144 0.024032 9.43042 0.99733 9.41842 2.25901C9.41842 3.60481 9.41842 4.96262 9.41842 6.30841C9.43042 7.54606 10.4024 8.54339 11.6383 8.56742ZM10.9184 2.27103C10.9184 1.82644 11.2424 1.51402 11.6863 1.502C11.9383 1.502 12.1903 1.502 12.4543 1.502H15.0222C15.2742 1.502 15.5262 1.502 15.7782 1.502C16.1502 1.502 16.4862 1.83845 16.4862 2.18692C16.5102 3.62884 16.5102 4.90254 16.4862 6.06809C16.4742 6.84913 16.2702 7.04139 15.4782 7.06542C14.9622 7.07744 14.4463 7.07744 13.9303 7.07744C13.1743 7.07744 12.4183 7.06542 11.6623 7.0534C11.2424 7.0534 10.9304 6.72897 10.9184 6.2964C10.9184 4.9506 10.9184 3.61682 10.9184 2.27103Z" fill="currentColor"/>
<path d="M6.38252 9.43258C5.69854 9.40855 5.02656 9.39653 4.34258 9.39653C3.6346 9.39653 2.91463 9.40855 2.20665 9.43258C0.95869 9.48064 0.0707184 10.3578 0.0347196 11.5714C-0.00127927 12.9653 -0.0132789 14.3591 0.02272 15.753C0.0587188 16.9907 0.790695 17.8077 2.01466 17.9399C2.31465 17.976 2.60264 17.988 2.90263 17.988C3.38261 17.988 3.8746 17.964 4.35458 17.964C4.35458 17.976 4.35458 17.988 4.35458 18C4.76257 18 5.17056 18 5.56654 18C5.81853 18 6.07053 18 6.31052 18C7.46248 17.988 8.50645 17.0748 8.54245 15.9332C8.59045 14.5274 8.60245 13.1215 8.54245 11.7156C8.49445 10.2857 7.71447 9.48064 6.38252 9.43258ZM7.06649 15.8732C7.05449 16.1856 6.68251 16.486 6.31052 16.486C6.16652 16.486 6.01053 16.486 5.85453 16.486V16.4499H4.36658C4.11459 16.4499 3.8506 16.462 3.59861 16.462C3.37061 16.474 3.14262 16.474 2.91463 16.474C2.62664 16.474 2.39864 16.462 2.19465 16.4379C1.78666 16.3899 1.55867 16.2577 1.53467 15.7049C1.49867 14.3832 1.49867 13.0013 1.54667 11.6075C1.54667 11.0187 2.05065 10.9466 2.25465 10.9346C2.95063 10.9105 3.6466 10.8985 4.34258 10.8985C5.00256 10.8985 5.66254 10.9105 6.32252 10.9346C6.7545 10.9466 7.0065 11.0187 7.0545 11.7877C7.11449 13.0494 7.11449 14.3952 7.06649 15.8732Z" fill="currentColor"/>
<path d="M13.7383 9.42056H13.7263C11.3744 9.42056 9.43042 11.3071 9.43042 13.6021C9.41842 16.0294 11.3264 17.988 13.7023 17.988C13.7023 17.988 13.7023 17.988 13.7143 17.988C16.0782 17.988 17.9861 16.0654 17.9981 13.6622C17.9981 11.3431 16.0782 9.42056 13.7383 9.42056ZM13.6903 16.486C12.9583 16.486 12.2743 16.1976 11.7583 15.6689C11.2184 15.1282 10.9184 14.3832 10.9184 13.6021C10.9184 12.1482 12.2023 10.9105 13.7143 10.9105C14.4583 10.9105 15.1662 11.2109 15.6942 11.7397C16.2102 12.2563 16.4862 12.9292 16.4862 13.6502C16.4742 15.2483 15.2502 16.486 13.6903 16.486Z" fill="currentColor"/>
</svg>
