<svg width="18" height="18" viewBox="0 0 18 18" fill="none" xmlns="http://www.w3.org/2000/svg">
<path d="M16.9016 7.74856C16.4043 4.57818 14.0045 1.94883 10.9236 1.22386C7.73465 0.466431 4.4484 1.66749 2.53503 4.27521C2.53503 4.0588 2.53503 3.8424 2.52422 3.62599C2.52422 3.12825 2.21072 2.80364 1.76751 2.80364C1.31349 2.80364 1.01081 3.13907 1 3.63681C1 4.589 1 5.5412 1 6.50421C1 7.03441 1.30268 7.33738 1.83237 7.3482C2.78366 7.35903 3.74575 7.35903 4.69703 7.3482C5.1943 7.3482 5.52941 7.04523 5.54022 6.59078C5.54022 6.38519 5.47536 6.20124 5.34564 6.06058C5.19429 5.89827 4.95647 5.81171 4.68622 5.81171C4.3403 5.81171 3.99438 5.81171 3.63765 5.81171H3.38902C3.41064 5.76843 3.43226 5.72514 3.46469 5.68186C5.01052 3.30138 7.15091 2.26262 9.82099 2.59805C12.4478 2.92266 14.2855 4.43752 15.1287 6.95867C15.9611 9.469 15.4098 11.7196 13.4964 13.6457C12.2316 14.9117 10.6209 15.5176 8.69675 15.4635C8.52379 15.4527 8.27516 15.4527 8.08058 15.5392C7.74546 15.6799 7.58331 16.0153 7.6806 16.3832C7.82113 16.9459 8.36164 16.9784 8.54541 16.9892C8.70756 17 8.86971 17 9.03186 17C11.2803 17 13.4099 16.0586 14.9341 14.3706C16.5556 12.5636 17.2799 10.1507 16.9016 7.74856Z" fill="currentColor"/>
<path d="M9.76694 4.83787C9.76694 4.34013 9.45345 4.0047 8.99943 4.0047C8.54541 4.0047 8.23192 4.34013 8.23192 4.83787C8.23192 6.39601 8.23192 7.95415 8.23192 9.51228C8.23192 10.0425 8.52379 10.3455 9.06429 10.3563C9.26968 10.3563 9.47507 10.3563 9.66965 10.3563H10.8696C11.1831 10.3563 11.4965 10.3563 11.81 10.3563C12.4478 10.3563 13.0964 10.3563 13.7342 10.3346C13.9937 10.3238 14.318 10.1399 14.4693 9.92346C14.599 9.71787 14.545 9.31752 14.3936 9.13357C14.2315 8.92798 13.918 8.84142 13.6802 8.84142C12.6748 8.81978 11.6587 8.81978 10.6209 8.8306H9.76694C9.76694 8.79814 9.76694 8.76568 9.76694 8.72239V7.46723C9.76694 6.59078 9.76694 5.71432 9.76694 4.83787Z" fill="currentColor"/>
<path d="M6.48069 9.43654C4.95647 9.43654 3.42145 9.43654 1.89723 9.43654C1.35673 9.43654 1.02162 9.71787 1 10.1723C1 10.3887 1.06486 10.5727 1.20539 10.7025C1.36754 10.8648 1.60536 10.9514 1.89723 10.9622C2.43774 10.9622 2.97824 10.9622 3.51874 10.9622H4.8808C5.10781 10.9622 5.33483 10.9622 5.57265 10.9622C5.87533 10.9622 6.18882 10.9622 6.4915 10.9622C7.02119 10.9622 7.36711 10.6592 7.3563 10.194C7.3563 9.72869 7.01038 9.43654 6.48069 9.43654Z" fill="currentColor"/>
<path d="M6.43745 12.4446C5.90776 12.4446 5.38888 12.4446 4.85918 12.4446H3.49712C2.96743 12.4446 2.44855 12.4446 1.91885 12.4446C1.35673 12.4446 1.01081 12.7259 1 13.202C1 13.4076 1.06486 13.5916 1.19458 13.7322C1.36754 13.8945 1.60536 13.9811 1.90804 13.9811C2.66475 13.9811 3.42145 13.9811 4.17815 13.9811C4.93485 13.9811 5.69156 13.9811 6.44826 13.9811C6.75094 13.9811 6.98876 13.8945 7.15091 13.7322C7.28063 13.5916 7.3563 13.4184 7.34549 13.202C7.34549 12.7259 6.99957 12.4446 6.43745 12.4446Z" fill="currentColor"/>
<path d="M6.44826 15.4635C4.93485 15.4635 3.41064 15.4635 1.89723 15.4635C1.59455 15.4635 1.35673 15.5501 1.19458 15.7124C1.06486 15.853 1 16.0262 1 16.2426C1.01081 16.7079 1.35673 17 1.91885 17C2.43774 17 2.95662 17 3.48631 17H4.86999C5.097 17 5.33483 17 5.56184 17C5.85371 17 6.14558 17 6.42664 17C6.98876 17 7.33468 16.7079 7.34549 16.2426C7.34549 16.037 7.28063 15.853 7.15091 15.7124C6.98876 15.5501 6.75094 15.4635 6.44826 15.4635Z" fill="currentColor"/>
</svg>
