<svg width="20" height="21" viewBox="0 0 20 21" fill="none" xmlns="http://www.w3.org/2000/svg">
<path d="M14.4419 16.0838C10.3356 19.3757 4.93481 18.3812 2.06297 14.9865C-0.783155 11.6174 -0.680283 6.54241 2.34586 3.31909C5.44916 0.00147763 10.4384 -0.427155 14.0904 2.24751C17.4252 4.69072 19.2769 10.3487 15.6078 14.9436C15.6849 15.0208 15.7535 15.1065 15.8392 15.1836C17.108 16.4524 18.3682 17.7126 19.6369 18.9813C19.8684 19.2128 20.0484 19.4614 19.9884 19.8043C19.9369 20.1129 19.7655 20.3358 19.4655 20.4473C19.1225 20.5673 18.8311 20.473 18.5825 20.2329C17.8624 19.5128 17.1337 18.7927 16.4136 18.0726C15.7535 17.404 15.102 16.7524 14.4419 16.0838ZM15.985 9.31138C15.9935 5.37653 12.7531 2.1275 8.81822 2.11892C4.8748 2.11035 1.63433 5.33367 1.61719 9.27709C1.60004 13.2291 4.84908 16.4867 8.80107 16.4867C12.7359 16.4867 15.9764 13.2462 15.985 9.31138Z" fill="currentColor"/>
</svg>
