<svg width="18" height="18" viewBox="0 0 18 18" fill="none" xmlns="http://www.w3.org/2000/svg">
<path d="M17.1889 7.92139C16.1238 6.09541 15.0676 4.26048 14.0114 2.4345C13.6086 1.73633 12.991 1.3783 12.1854 1.3783C12.1854 1.3783 12.1854 1.3783 12.1764 1.3783C10.0551 1.3783 7.94266 1.3783 5.8213 1.3783C5.8213 1.3783 5.8213 1.3783 5.81235 1.3783C5.00677 1.3783 4.38916 1.72738 3.99532 2.42555C2.93912 4.26943 1.88291 6.11331 0.808805 7.95719C0.397065 8.66432 0.397065 9.37143 0.808805 10.0607C1.87396 11.8866 2.93912 13.7216 3.98637 15.5475C4.39811 16.2547 5.02467 16.6217 5.84815 16.6217C5.8571 16.6217 5.86605 16.6217 5.87501 16.6217C6.59108 16.6127 7.3161 16.6127 8.04112 16.6217H9.94766C10.6816 16.6217 11.4246 16.6217 12.1585 16.6217C12.991 16.6306 13.6086 16.2726 14.0114 15.5565C15.0676 13.7216 16.1148 11.8866 17.18 10.0607C17.6007 9.33563 17.6096 8.63746 17.1889 7.92139ZM15.8015 9.33563C14.7543 11.1348 13.707 12.9339 12.6777 14.742C12.5434 14.9747 12.4002 15.0552 12.1138 15.0642C11.6573 15.0552 11.1918 15.0552 10.7353 15.0552C10.44 15.0552 10.1446 15.0552 9.8492 15.0552H8.08587C7.3519 15.0552 6.61793 15.0552 5.88396 15.0642C5.59753 15.0642 5.45431 14.9836 5.32005 14.742C4.28175 12.9249 3.23449 11.1169 2.17829 9.29983C2.04403 9.07606 2.04403 8.90599 2.17829 8.68222C3.24345 6.87414 4.2907 5.06606 5.33795 3.24903C5.46326 3.02526 5.60648 2.9447 5.87501 2.9447C5.87501 2.9447 5.87501 2.9447 5.88396 2.9447C7.96951 2.95365 10.0461 2.95365 12.1317 2.9447C12.1317 2.9447 12.1317 2.9447 12.1406 2.9447C12.4092 2.9447 12.5613 3.03421 12.6956 3.27588C13.7249 5.08396 14.7722 6.88309 15.8194 8.68222C15.9447 8.91494 15.9447 9.09396 15.8015 9.33563Z" fill="currentColor"/>
<path d="M9.02572 5.4241H9.01677C7.04757 5.4241 5.43641 7.01735 5.42746 8.9776C5.41851 10.9557 7.01177 12.5669 8.98096 12.5759C8.98991 12.5759 8.98991 12.5759 8.99886 12.5759C10.9591 12.5759 12.5703 10.9826 12.5792 9.02235C12.5882 8.06461 12.2122 7.16057 11.5409 6.4803C10.8696 5.80003 9.97451 5.4241 9.02572 5.4241ZM9.03467 11.0094C9.02572 11.0094 9.01677 11.0094 9.01677 11.0094C8.47971 11.0094 7.97846 10.8036 7.60253 10.4276C7.20869 10.0517 6.99387 9.55045 6.99387 9.02235C6.99387 8.4853 7.19974 7.9751 7.57567 7.59021C7.95161 7.20532 8.45286 6.9905 8.98991 6.9905C9.54487 6.9905 10.0372 7.19637 10.4221 7.57231C10.8069 7.94824 11.0128 8.45844 11.0128 8.98655C11.0128 10.0965 10.1267 11.0005 9.03467 11.0094Z" fill="currentColor"/>
</svg>
