<svg width="18" height="19" viewBox="0 0 18 19" fill="none" xmlns="http://www.w3.org/2000/svg">
<path d="M6.94579 11.4391C5.51966 12.9729 3.52173 12.7038 2.45886 11.6073C1.32872 10.4435 1.31527 8.61376 2.4185 7.42308C3.44101 6.32657 5.47257 5.97677 6.95252 7.55762C8.09611 6.91182 9.24644 6.2593 10.3833 5.60005C10.4506 5.55969 10.4775 5.37133 10.4506 5.2637C10.1209 3.87121 10.7667 2.4518 12.0314 1.81946C13.4037 1.13331 15.0788 1.58402 15.9129 2.86888C16.7471 4.15374 16.4847 5.86241 15.3008 6.84455C14.1235 7.81997 12.388 7.74598 11.2847 6.67638C11.2107 6.60238 11.1636 6.5082 11.0964 6.42075C10.1008 6.98582 9.17244 7.53744 8.2172 8.04197C7.72613 8.29759 7.36959 8.51959 7.59159 9.19229C7.69922 9.50846 7.5714 9.91208 7.51759 10.2686C7.49068 10.4368 7.49068 10.531 7.65213 10.6184C8.77554 11.2508 9.89896 11.8898 11.1233 12.5827C11.1636 12.5154 11.1905 12.4011 11.2645 12.3338C12.1458 11.5131 13.175 11.244 14.3186 11.6207C15.4555 11.9907 16.1349 12.8114 16.3502 13.9819C16.5722 15.1861 16.0071 16.3969 14.9711 17.0427C13.9284 17.6885 12.6167 17.6482 11.6211 16.9351C10.6187 16.2153 10.1546 14.9708 10.4573 13.7667C10.5111 13.5447 10.4775 13.437 10.2757 13.3294C9.19262 12.7307 8.11629 12.1118 7.03997 11.4997C7.01306 11.4728 6.98615 11.466 6.94579 11.4391ZM11.426 4.50355C11.4193 5.59333 12.2871 6.47457 13.3701 6.48129C14.4464 6.48802 15.3344 5.59333 15.3411 4.517C15.3411 3.4474 14.4733 2.56616 13.4037 2.55944C12.314 2.55271 11.4327 3.4205 11.426 4.50355ZM13.3634 16.4373C14.4532 16.444 15.3344 15.5695 15.3411 14.4865C15.3479 13.4101 14.4599 12.5154 13.3836 12.5154C12.314 12.5154 11.4394 13.39 11.4327 14.4528C11.4193 15.5493 12.2803 16.4306 13.3634 16.4373ZM4.62497 11.4526C5.71474 11.4458 6.5758 10.5781 6.56908 9.48155C6.56235 8.40523 5.69456 7.55089 4.61824 7.55089C3.52846 7.55089 2.65395 8.42541 2.65395 9.50846C2.65395 10.5915 3.53519 11.4593 4.62497 11.4526Z" fill="currentColor"/>
</svg>
