<svg width="18" height="18" viewBox="0 0 18 18" fill="none" xmlns="http://www.w3.org/2000/svg">
<path d="M17.86 8.77078C17.6078 7.79846 17.0312 6.93285 16.2264 6.31625C15.4216 5.69965 14.4247 5.36764 13.4157 5.36764H13.1514C12.8751 4.64432 12.4667 3.95657 11.9623 3.37555C11.3016 2.6048 10.4608 1.97635 9.52387 1.57318C8.58696 1.17002 7.55395 0.968444 6.53296 1.00402C5.52397 1.05145 4.50297 1.31232 3.60209 1.78662C2.70122 2.26093 1.90844 2.93682 1.30786 3.75499C0.707269 4.57317 0.286859 5.52179 0.106683 6.51783C-0.0734928 7.51387 -0.0254459 8.54549 0.250824 9.51782C0.527093 10.4783 1.01957 11.3913 1.70424 12.1502C2.02856 12.5178 2.60512 12.5534 2.97748 12.2332C3.34985 11.9131 3.38588 11.3439 3.06157 10.9763C2.55707 10.419 2.18471 9.74311 1.98051 9.03165C1.77631 8.32019 1.74028 7.5613 1.87241 6.82613C2.01655 6.10281 2.31684 5.40321 2.76127 4.79847C3.20571 4.19373 3.78227 3.70756 4.44292 3.36369C5.11557 3.00796 5.8603 2.81824 6.60503 2.78267C7.34975 2.75895 8.1185 2.90124 8.80317 3.19768C9.48784 3.49413 10.1124 3.95657 10.5929 4.51388C11.0734 5.07119 11.4337 5.75894 11.6259 6.4704C11.734 6.8617 12.0824 7.13443 12.5028 7.13443H13.4277C14.0403 7.13443 14.6529 7.33601 15.1333 7.71545C15.6138 8.08304 15.9742 8.61663 16.1183 9.20952C16.2745 9.8024 16.2144 10.4309 15.9742 10.9882C15.7339 11.5455 15.3015 12.0079 14.761 12.3044C14.3286 12.5415 14.1604 13.0751 14.4006 13.5138C14.5688 13.8103 14.8691 13.9763 15.1934 13.9763C15.3375 13.9763 15.4937 13.9407 15.6258 13.8696C16.5147 13.3953 17.2234 12.6245 17.6318 11.7115C18.0162 10.7747 18.1123 9.74311 17.86 8.77078Z" fill="currentColor"/>
<path d="M9.64399 7.81031C9.63198 7.79846 9.63198 7.79846 9.64399 7.81031C9.5479 7.72731 9.4518 7.65616 9.3437 7.60873C9.23559 7.57316 9.12749 7.54945 9.00737 7.54945C8.88725 7.54945 8.76714 7.57316 8.65903 7.62059C8.55093 7.65616 8.45483 7.72731 8.37075 7.79846C8.37075 7.79846 8.37075 7.79846 8.35874 7.79846L5.41587 10.7154C5.06753 11.0593 5.06753 11.6285 5.41587 11.9724C5.76421 12.3162 6.34077 12.3162 6.68911 11.9724L8.09448 10.585V16.1107C8.09448 16.5968 8.50288 17 8.99536 17C9.48784 17 9.89624 16.5968 9.89624 16.1107V10.585L11.3016 11.9724C11.4818 12.1502 11.71 12.2332 11.9382 12.2332C12.1665 12.2332 12.3947 12.1502 12.5749 11.9724C12.9232 11.6285 12.9232 11.0593 12.5749 10.7154L9.64399 7.81031Z" fill="currentColor"/>
</svg>
