<svg width="18" height="18" viewBox="0 0 18 18" fill="none" xmlns="http://www.w3.org/2000/svg">
    <path d="M12.0917 9.59151C12.9087 8.94872 13.505 8.06727 13.7977 7.06979C14.0904 6.07231 14.0649 5.00839 13.7248 4.02606C13.3847 3.04373 12.7469 2.19183 11.9001 1.58889C11.0532 0.985939 10.0395 0.661926 9 0.661926C7.96045 0.661926 6.94676 0.985939 6.09994 1.58889C5.25312 2.19183 4.61528 3.04373 4.27517 4.02606C3.93506 5.00839 3.90959 6.07231 4.2023 7.06979C4.49501 8.06727 5.09134 8.94872 5.90833 9.59151C4.5084 10.1524 3.2869 11.0826 2.37407 12.2831C1.46125 13.4836 0.8913 14.9093 0.724997 16.4082C0.712959 16.5176 0.722594 16.6283 0.753352 16.7341C0.784109 16.8398 0.835387 16.9384 0.904257 17.0243C1.04335 17.1977 1.24565 17.3089 1.46666 17.3332C1.68768 17.3575 1.9093 17.293 2.08277 17.1539C2.25624 17.0148 2.36735 16.8125 2.39166 16.5915C2.57465 14.9625 3.3514 13.458 4.57351 12.3655C5.79562 11.273 7.37741 10.669 9.01667 10.669C10.6559 10.669 12.2377 11.273 13.4598 12.3655C14.6819 13.458 15.4587 14.9625 15.6417 16.5915C15.6643 16.7963 15.762 16.9854 15.9159 17.1224C16.0698 17.2593 16.269 17.3344 16.475 17.3332H16.5667C16.7851 17.308 16.9848 17.1976 17.1221 17.0259C17.2595 16.8542 17.3234 16.6351 17.3 16.4165C17.1329 14.9133 16.5599 13.484 15.6424 12.2817C14.7249 11.0794 13.4974 10.1494 12.0917 9.59151ZM9 8.99984C8.34073 8.99984 7.69626 8.80434 7.1481 8.43807C6.59993 8.0718 6.17269 7.55121 5.9204 6.94212C5.66811 6.33303 5.6021 5.66281 5.73071 5.01621C5.85933 4.3696 6.1768 3.77566 6.64297 3.30948C7.10915 2.84331 7.70309 2.52584 8.3497 2.39722C8.9963 2.2686 9.66652 2.33462 10.2756 2.58691C10.8847 2.8392 11.4053 3.26644 11.7716 3.81461C12.1378 4.36277 12.3333 5.00724 12.3333 5.66651C12.3333 6.55056 11.9821 7.39841 11.357 8.02353C10.7319 8.64865 9.88405 8.99984 9 8.99984Z" fill="currentColor"/>
</svg>