<svg width="21" height="21" viewBox="0 0 21 21" fill="none" xmlns="http://www.w3.org/2000/svg">
<path d="M7.83362 3.91663C8.74518 3.91671 9.62202 4.25591 10.2946 4.86487L10.4264 4.99084C11.1138 5.67845 11.4996 6.61131 11.4996 7.58362L11.4948 7.77698C11.474 8.1627 11.3911 8.54254 11.2496 8.90198L11.1744 9.07971C10.9599 9.54928 10.6468 9.96738 10.2565 10.3053L9.66565 10.816L10.3766 11.1383C11.3881 11.5963 12.2564 12.3188 12.8903 13.2272L13.0143 13.4117C13.6166 14.3447 13.9549 15.4219 13.9957 16.5289L13.9996 16.7506C13.9995 16.8168 13.9802 16.881 13.944 16.9352L13.902 16.986C13.8395 17.0483 13.7549 17.0836 13.6666 17.0836C13.6004 17.0836 13.5364 17.0632 13.4821 17.027L13.4313 16.986C13.3688 16.9234 13.3336 16.838 13.3336 16.7496C13.3335 15.3822 12.8242 14.0671 11.9108 13.0582L11.7223 12.861C10.6909 11.8296 9.29219 11.2497 7.83362 11.2496C6.37493 11.2496 4.97542 11.8295 3.94397 12.861C2.9127 13.8923 2.3337 15.2911 2.33362 16.7496C2.33362 16.8161 2.31337 16.8807 2.27698 16.9352L2.23596 16.986C2.17345 17.0485 2.08804 17.0836 1.99963 17.0836C1.9334 17.0836 1.86936 17.0632 1.81506 17.027L1.76428 16.986C1.70192 16.9236 1.6668 16.8388 1.66663 16.7506C1.66769 15.6401 1.96878 14.5519 2.53577 13.6002L2.65295 13.4117C3.29543 12.4166 4.21065 11.6269 5.28967 11.1383L6.00159 10.816L5.41077 10.3053C5.06924 10.0097 4.7868 9.65266 4.57776 9.25354L4.4928 9.07971C4.27822 8.61015 4.16667 8.09988 4.16663 7.58362L4.17151 7.401C4.21357 6.5555 4.54674 5.75028 5.11487 5.12268L5.24084 4.99084C5.92848 4.30321 6.86116 3.91663 7.83362 3.91663ZM12.8336 3.91663C13.4519 3.91649 14.0587 4.0727 14.5983 4.36877L14.8258 4.50452C15.4191 4.88825 15.8886 5.43531 16.1783 6.07971C16.4681 6.72437 16.5655 7.43965 16.4586 8.13831C16.3516 8.83682 16.045 9.4898 15.5758 10.0182L15.1832 10.4606L15.6852 10.774C16.6971 11.4065 17.5303 12.2874 18.1061 13.3326C18.6099 14.2473 18.9026 15.2617 18.9635 16.3004L18.9752 16.7477V16.7496C18.9752 16.838 18.9401 16.9234 18.8776 16.986C18.8151 17.0485 18.7296 17.0836 18.6412 17.0836C18.553 17.0835 18.4683 17.0483 18.4059 16.986C18.359 16.939 18.3279 16.8792 18.3151 16.8151L18.3082 16.7496C18.3169 15.5441 17.9818 14.3609 17.3414 13.3395C16.7017 12.3192 15.7842 11.5024 14.6969 10.985L14.6285 10.9479L14.319 10.7418L14.316 10.7408L14.2526 10.6862L14.2047 10.6168C14.1786 10.5669 14.1654 10.511 14.1666 10.4547C14.1674 10.4262 14.1714 10.3979 14.1793 10.3707L14.2135 10.2926C14.228 10.2683 14.2453 10.2459 14.2653 10.2262L14.3326 10.1744H14.3336C14.7316 9.9446 15.0709 9.62706 15.3258 9.2467L15.4293 9.07971C15.6596 8.68201 15.7956 8.23765 15.8268 7.78088L15.8336 7.58459V7.58362C15.8336 6.88749 15.5913 6.21606 15.1539 5.68225L14.9547 5.46155C14.3922 4.89912 13.6291 4.5837 12.8336 4.58362C12.7672 4.58362 12.7025 4.56337 12.6481 4.52698L12.5973 4.48596C12.5348 4.42345 12.4996 4.33804 12.4996 4.24963C12.4997 4.16142 12.535 4.0767 12.5973 4.01428C12.6442 3.96736 12.7041 3.93625 12.7682 3.92346L12.8336 3.91663ZM8.98108 4.81213C8.43292 4.58509 7.8296 4.52548 7.24768 4.64124C6.66589 4.75704 6.13101 5.04208 5.71155 5.46155C5.29208 5.88101 5.00704 6.41589 4.89124 6.99768C4.77548 7.5796 4.83509 8.18292 5.06213 8.73108C5.2892 9.27926 5.67328 9.74811 6.16663 10.0778C6.65996 10.4074 7.2403 10.5836 7.83362 10.5836C8.62915 10.5835 9.39218 10.2672 9.95471 9.70471C10.5172 9.14218 10.8335 8.37915 10.8336 7.58362C10.8336 7.06431 10.6986 6.55482 10.444 6.1051L10.3278 5.91663C10.0393 5.48497 9.64462 5.13639 9.18323 4.90393L8.98108 4.81213Z" fill="black" stroke="#0D99FF"/>
</svg>
