<svg width="20" height="21" viewBox="0 0 20 21" fill="none" xmlns="http://www.w3.org/2000/svg">
<path d="M13.6952 11.2098C14.6756 10.4384 15.3912 9.38068 15.7424 8.1837C16.0937 6.98672 16.0631 5.71002 15.655 4.53123C15.2468 3.35243 14.4814 2.33015 13.4652 1.60661C12.4491 0.883078 11.2326 0.494263 9.98517 0.494263C8.73771 0.494263 7.52128 0.883078 6.5051 1.60661C5.48891 2.33015 4.72351 3.35243 4.31538 4.53123C3.90725 5.71002 3.87668 6.98672 4.22793 8.1837C4.57917 9.38068 5.29477 10.4384 6.27517 11.2098C4.59524 11.8828 3.12945 12.9991 2.03406 14.4397C0.938663 15.8802 0.254728 17.5911 0.0551651 19.3898C0.0407197 19.5211 0.0522817 19.654 0.0891906 19.7808C0.126099 19.9077 0.187633 20.026 0.270277 20.1291C0.437184 20.3372 0.679949 20.4706 0.945165 20.4998C1.21038 20.5289 1.47632 20.4516 1.68449 20.2846C1.89266 20.1177 2.02599 19.875 2.05517 19.6098C2.27475 17.655 3.20685 15.8496 4.67338 14.5386C6.13992 13.2275 8.03806 12.5028 10.0052 12.5028C11.9723 12.5028 13.8704 13.2275 15.3369 14.5386C16.8035 15.8496 17.7356 17.655 17.9552 19.6098C17.9824 19.8555 18.0996 20.0824 18.2843 20.2468C18.4689 20.4111 18.7079 20.5013 18.9552 20.4998H19.0652C19.3273 20.4696 19.5669 20.3371 19.7317 20.131C19.8966 19.925 19.9733 19.6621 19.9452 19.3998C19.7447 17.596 19.057 15.8807 17.956 14.438C16.855 12.9952 15.3821 11.8792 13.6952 11.2098ZM9.98517 10.4998C9.19404 10.4998 8.42068 10.2652 7.76288 9.82564C7.10509 9.38611 6.5924 8.7614 6.28965 8.03049C5.9869 7.29959 5.90768 6.49532 6.06202 5.7194C6.21636 4.94347 6.59733 4.23074 7.15674 3.67133C7.71615 3.11192 8.42888 2.73096 9.2048 2.57662C9.98073 2.42228 10.785 2.50149 11.5159 2.80424C12.2468 3.10699 12.8715 3.61968 13.311 4.27748C13.7506 4.93527 13.9852 5.70863 13.9852 6.49976C13.9852 7.56062 13.5637 8.57804 12.8136 9.32819C12.0634 10.0783 11.046 10.4998 9.98517 10.4998Z" fill="currentColor"/>
</svg>
