<svg width="16" height="15" viewBox="0 0 16 15" fill="none" xmlns="http://www.w3.org/2000/svg">
<path d="M8.00024 0.5C9.74062 0.500085 11.4145 1.14791 12.6985 2.31055L12.9495 2.5498C14.2622 3.86256 15.0002 5.64348 15.0002 7.5C15.0002 9.35652 14.2622 11.1374 12.9495 12.4502C11.6368 13.7627 9.85649 14.4999 8.00024 14.5H1.22876C1.204 14.501 1.17925 14.4993 1.15552 14.4932L1.08813 14.4639C1.04812 14.4394 1.0163 14.4041 0.995361 14.3623C0.979076 14.3191 0.974889 14.272 0.983643 14.2266C0.993047 14.1782 1.01645 14.1337 1.05103 14.0986L1.05005 14.0977L2.5481 12.6006L2.86938 12.2803L2.58032 11.9297C1.61684 10.7614 1.06521 9.3113 1.00513 7.80371L1.00024 7.50195V7.5C1.00024 5.75951 1.64808 4.08584 2.81079 2.80176L3.05005 2.5498C3.61867 1.98123 4.28079 1.51605 5.0061 1.17285L5.32153 1.0332C6.17075 0.681483 7.08107 0.5 8.00024 0.5ZM10.4788 1.49316C9.17594 0.954541 7.73564 0.854964 6.37524 1.20508L6.10474 1.28125C4.75596 1.69134 3.57879 2.52752 2.74927 3.66113L2.58813 3.89258C1.80583 5.06515 1.42723 6.45797 1.50513 7.86035L1.52661 8.14062C1.67481 9.63635 2.33761 11.0341 3.40063 12.0967V12.0977C3.44697 12.1444 3.47282 12.2076 3.4729 12.2734C3.4729 12.339 3.44752 12.4025 3.40161 12.4492L2.70337 13.1465L1.84985 14H8.00024C9.4101 13.9989 10.7788 13.5396 11.9016 12.6953L12.1223 12.5215C13.2114 11.6263 13.9784 10.403 14.3108 9.03809L14.3713 8.76367C14.6454 7.38072 14.4617 5.94859 13.8528 4.68262L13.7258 4.43164C13.0605 3.18895 12.0101 2.1988 10.7366 1.60645L10.4788 1.49316ZM11.0002 5.41699C11.0167 5.41701 11.033 5.41869 11.0491 5.42188L11.0969 5.43652C11.1275 5.44924 11.1555 5.46778 11.179 5.49121C11.1906 5.50289 11.2011 5.51565 11.2102 5.5293L11.2336 5.57324C11.2463 5.60391 11.2532 5.63674 11.2532 5.66992L11.2483 5.71973L11.2336 5.7666C11.2273 5.78196 11.2194 5.79679 11.2102 5.81055L11.179 5.84863L7.09692 9.93066C7.07376 9.95392 7.04617 9.97273 7.01587 9.98535C6.98555 9.99795 6.95299 10.0039 6.92017 10.0039C6.90379 10.0039 6.88733 10.0022 6.87134 9.99902L6.82349 9.98535C6.80837 9.97904 6.79405 9.971 6.78052 9.96191L6.74243 9.93066L4.82056 8.00879C4.79719 7.98535 4.77854 7.95734 4.76587 7.92676C4.7532 7.89612 4.74732 7.86323 4.74731 7.83008C4.74731 7.77971 4.76175 7.73074 4.78931 7.68945L4.82056 7.65137C4.86802 7.60391 4.93313 7.57715 5.00024 7.57715C5.05029 7.57722 5.09881 7.59186 5.13989 7.61914L5.17896 7.65137L6.56567 9.04492L6.91919 9.40137L7.27368 9.0459L10.8206 5.49121C10.8323 5.47945 10.8459 5.46916 10.8596 5.45996L10.9026 5.43652C10.9333 5.42381 10.967 5.41699 11.0002 5.41699Z" fill="black" stroke="#F7F9FC"/>
</svg>
