<svg width="18" height="18" viewBox="0 0 18 18" fill="none" xmlns="http://www.w3.org/2000/svg">
<path d="M14.823 11.288V11.1808C14.823 10.42 14.823 10.002 14.6192 9.58406C14.3619 9.04823 13.89 8.64099 13.2895 8.42666C12.8605 8.27662 12.4208 8.27662 11.5522 8.27662C10.8873 8.27662 10.4906 8.27662 10.2975 8.21232C10.0616 8.12659 9.86858 7.96584 9.78279 7.78366C9.72917 7.66577 9.72917 7.31212 9.72917 6.81916V6.71199C10.9839 6.39049 11.9168 5.25452 11.9168 3.90422C11.9168 2.30743 10.6085 1 8.99995 1C7.39138 1 6.0938 2.30743 6.0938 3.90422C6.0938 5.25452 7.02678 6.37977 8.28146 6.71199V6.81916C8.28146 7.31212 8.28146 7.66577 8.22784 7.78366C8.13133 7.96584 7.94902 8.12659 7.7131 8.20161C7.52007 8.27662 7.12329 8.27662 6.45841 8.27662C5.58979 8.27662 5.15011 8.27662 4.72116 8.42666C4.12063 8.64099 3.64878 9.04823 3.39141 9.58406C3.18766 10.002 3.18765 10.42 3.18765 11.1808V11.288C1.93297 11.6095 1 12.7348 1 14.0958C1 15.7033 2.3083 17 3.90615 17C5.51472 17 6.8123 15.6926 6.8123 14.0958C6.8123 12.7455 5.87933 11.6202 4.62464 11.288V11.1808C4.62464 10.6879 4.62464 10.3342 4.67826 10.2163C4.77478 10.0234 4.96781 9.87341 5.20373 9.78768C5.39676 9.72338 5.79354 9.72338 6.45841 9.72338C7.32704 9.72338 7.76672 9.72338 8.19567 9.57334C8.50666 9.45546 8.77475 9.30543 8.99995 9.10181C9.23588 9.30543 9.50397 9.45546 9.81496 9.57334C10.2439 9.72338 10.6836 9.72338 11.5522 9.72338C12.2171 9.72338 12.6139 9.72338 12.8069 9.78768C13.0428 9.87341 13.2251 10.0234 13.3216 10.2056C13.3753 10.3235 13.3753 10.6772 13.3753 11.1808V11.288C12.1206 11.6095 11.1876 12.7455 11.1876 14.0958C11.1876 15.7033 12.4959 17 14.0938 17C15.6916 17 16.9999 15.6926 16.9999 14.0958C17.0106 12.7348 16.0777 11.6095 14.823 11.288ZM5.36459 14.0958C5.36459 14.8995 4.71043 15.5532 3.90615 15.5532C3.10186 15.5532 2.44771 14.8995 2.44771 14.0958C2.44771 13.292 3.10186 12.6383 3.90615 12.6383C4.71043 12.6276 5.36459 13.2813 5.36459 14.0958ZM7.54152 3.90422C7.54152 3.10047 8.19567 2.44675 8.99995 2.44675C9.80424 2.44675 10.4584 3.10047 10.4584 3.90422C10.4584 4.70797 9.80424 5.36169 8.99995 5.36169C8.19567 5.36169 7.54152 4.70797 7.54152 3.90422ZM14.1045 15.5532C13.3002 15.5532 12.646 14.8995 12.646 14.0958C12.646 13.292 13.3002 12.6383 14.1045 12.6383C14.9088 12.6383 15.5629 13.292 15.5629 14.0958C15.5629 14.8995 14.9088 15.5532 14.1045 15.5532Z" fill="currentColor"/>
</svg>
